<mxfile host="app.diagrams.net" modified="2021-09-10T03:23:13.686Z" agent="5.0 (Windows NT 10.0; WOW64) AppleWebKit/537.36 (KHTML, like Gecko) Chrome/95.0.4628.3 Safari/537.36" etag="eyeGEhex-6uSBUScYvDl" version="15.1.2" type="github">
  <diagram id="4HJHk8hwTrnTySvJUX3-" name="第 1 页">
    <mxGraphModel dx="6052" dy="3849" grid="1" gridSize="10" guides="1" tooltips="1" connect="1" arrows="1" fold="1" page="1" pageScale="1" pageWidth="4681" pageHeight="3300" math="0" shadow="0">
      <root>
        <mxCell id="0" />
        <mxCell id="1" parent="0" />
        <mxCell id="M9WVtqgSQ9D_E9_VqV0K-16" value="" style="edgeStyle=orthogonalEdgeStyle;rounded=0;orthogonalLoop=1;jettySize=auto;html=1;" parent="1" edge="1">
          <mxGeometry x="1000" as="geometry">
            <mxPoint x="1572" y="522" as="sourcePoint" />
          </mxGeometry>
        </mxCell>
        <mxCell id="M9WVtqgSQ9D_E9_VqV0K-17" value="否" style="edgeLabel;html=1;align=center;verticalAlign=middle;resizable=0;points=[];" parent="M9WVtqgSQ9D_E9_VqV0K-16" vertex="1" connectable="0">
          <mxGeometry x="-0.0667" y="1" relative="1" as="geometry">
            <mxPoint as="offset" />
          </mxGeometry>
        </mxCell>
        <mxCell id="Dk_nju9nJkwJKH275Vij-25" value="否" style="edgeStyle=orthogonalEdgeStyle;rounded=0;orthogonalLoop=1;jettySize=auto;html=1;" parent="1" edge="1">
          <mxGeometry as="geometry">
            <mxPoint x="309" y="324" as="sourcePoint" />
          </mxGeometry>
        </mxCell>
        <mxCell id="Dk_nju9nJkwJKH275Vij-28" value="" style="edgeStyle=orthogonalEdgeStyle;rounded=0;orthogonalLoop=1;jettySize=auto;html=1;" parent="1" edge="1">
          <mxGeometry as="geometry">
            <mxPoint x="309" y="423" as="sourcePoint" />
          </mxGeometry>
        </mxCell>
        <mxCell id="Dk_nju9nJkwJKH275Vij-46" value="否" style="edgeLabel;html=1;align=center;verticalAlign=middle;resizable=0;points=[];" parent="Dk_nju9nJkwJKH275Vij-28" vertex="1" connectable="0">
          <mxGeometry x="-0.1373" y="-1" relative="1" as="geometry">
            <mxPoint as="offset" />
          </mxGeometry>
        </mxCell>
        <mxCell id="Dk_nju9nJkwJKH275Vij-31" value="" style="edgeStyle=orthogonalEdgeStyle;rounded=0;orthogonalLoop=1;jettySize=auto;html=1;" parent="1" edge="1">
          <mxGeometry as="geometry">
            <mxPoint x="309" y="522" as="sourcePoint" />
          </mxGeometry>
        </mxCell>
        <mxCell id="Dk_nju9nJkwJKH275Vij-47" value="否" style="edgeLabel;html=1;align=center;verticalAlign=middle;resizable=0;points=[];" parent="Dk_nju9nJkwJKH275Vij-31" vertex="1" connectable="0">
          <mxGeometry x="-0.0353" y="1" relative="1" as="geometry">
            <mxPoint as="offset" />
          </mxGeometry>
        </mxCell>
        <mxCell id="M9WVtqgSQ9D_E9_VqV0K-199" value="" style="endArrow=none;dashed=1;html=1;fillColor=#f8cecc;strokeColor=#FF0000;" parent="1" edge="1">
          <mxGeometry x="1000" y="80" width="50" height="50" as="geometry">
            <mxPoint x="1000" y="326" as="sourcePoint" />
            <mxPoint x="1880" y="326" as="targetPoint" />
          </mxGeometry>
        </mxCell>
        <mxCell id="M9WVtqgSQ9D_E9_VqV0K-143" value="进站结束" style="rounded=1;whiteSpace=wrap;html=1;fillColor=#dae8fc;strokeColor=#6c8ebf;" parent="1" vertex="1">
          <mxGeometry x="1390" y="1139" width="100" height="50" as="geometry" />
        </mxCell>
        <mxCell id="wJslKxtzTdJbA1gBJVCl-10" style="edgeStyle=orthogonalEdgeStyle;rounded=0;orthogonalLoop=1;jettySize=auto;html=1;exitX=1;exitY=0.5;exitDx=0;exitDy=0;" parent="1" edge="1">
          <mxGeometry x="1000" as="geometry">
            <mxPoint x="1440" y="235" as="targetPoint" />
            <mxPoint x="1480" y="280" as="sourcePoint" />
            <Array as="points">
              <mxPoint x="1500" y="280" />
              <mxPoint x="1500" y="235" />
            </Array>
          </mxGeometry>
        </mxCell>
        <mxCell id="wJslKxtzTdJbA1gBJVCl-12" value="否" style="edgeLabel;html=1;align=center;verticalAlign=middle;resizable=0;points=[];" parent="wJslKxtzTdJbA1gBJVCl-10" vertex="1" connectable="0">
          <mxGeometry x="-0.3227" relative="1" as="geometry">
            <mxPoint as="offset" />
          </mxGeometry>
        </mxCell>
        <mxCell id="M9WVtqgSQ9D_E9_VqV0K-144" value="人脸质量分？" style="rhombus;whiteSpace=wrap;html=1;" parent="1" vertex="1">
          <mxGeometry x="1390" y="255" width="100" height="50" as="geometry" />
        </mxCell>
        <mxCell id="wJslKxtzTdJbA1gBJVCl-5" style="edgeStyle=orthogonalEdgeStyle;rounded=0;orthogonalLoop=1;jettySize=auto;html=1;exitX=0.5;exitY=1;exitDx=0;exitDy=0;entryX=0.5;entryY=0;entryDx=0;entryDy=0;" parent="1" source="M9WVtqgSQ9D_E9_VqV0K-144" target="M9WVtqgSQ9D_E9_VqV0K-170" edge="1">
          <mxGeometry x="1000" as="geometry">
            <mxPoint x="1440" y="354" as="targetPoint" />
          </mxGeometry>
        </mxCell>
        <mxCell id="wJslKxtzTdJbA1gBJVCl-13" value="是" style="edgeLabel;html=1;align=center;verticalAlign=middle;resizable=0;points=[];" parent="wJslKxtzTdJbA1gBJVCl-5" vertex="1" connectable="0">
          <mxGeometry x="-0.3146" y="1" relative="1" as="geometry">
            <mxPoint x="-1" y="-23.28" as="offset" />
          </mxGeometry>
        </mxCell>
        <mxCell id="M9WVtqgSQ9D_E9_VqV0K-170" value="站点常旅客库&lt;br&gt;Smax&amp;gt;T0?" style="rhombus;whiteSpace=wrap;html=1;" parent="1" vertex="1">
          <mxGeometry x="1340" y="446" width="200" height="50" as="geometry" />
        </mxCell>
        <mxCell id="M9WVtqgSQ9D_E9_VqV0K-172" value="线路常旅客库&lt;br&gt;Smax&amp;gt;T0?" style="rhombus;whiteSpace=wrap;html=1;" parent="1" vertex="1">
          <mxGeometry x="1340" y="570" width="200" height="50" as="geometry" />
        </mxCell>
        <mxCell id="M9WVtqgSQ9D_E9_VqV0K-173" value="" style="edgeStyle=orthogonalEdgeStyle;rounded=0;orthogonalLoop=1;jettySize=auto;html=1;" parent="1" source="M9WVtqgSQ9D_E9_VqV0K-170" target="M9WVtqgSQ9D_E9_VqV0K-172" edge="1">
          <mxGeometry x="1000" y="80" as="geometry" />
        </mxCell>
        <mxCell id="M9WVtqgSQ9D_E9_VqV0K-174" value="否" style="edgeLabel;html=1;align=center;verticalAlign=middle;resizable=0;points=[];" parent="M9WVtqgSQ9D_E9_VqV0K-173" vertex="1" connectable="0">
          <mxGeometry x="-0.1373" y="-1" relative="1" as="geometry">
            <mxPoint x="1" y="-4.14" as="offset" />
          </mxGeometry>
        </mxCell>
        <mxCell id="M9WVtqgSQ9D_E9_VqV0K-175" value="地铁全量库&lt;br&gt;Smax&amp;gt;T0?" style="rhombus;whiteSpace=wrap;html=1;" parent="1" vertex="1">
          <mxGeometry x="1340" y="680" width="200" height="50" as="geometry" />
        </mxCell>
        <mxCell id="M9WVtqgSQ9D_E9_VqV0K-176" value="" style="edgeStyle=orthogonalEdgeStyle;rounded=0;orthogonalLoop=1;jettySize=auto;html=1;" parent="1" source="M9WVtqgSQ9D_E9_VqV0K-172" target="M9WVtqgSQ9D_E9_VqV0K-175" edge="1">
          <mxGeometry x="1000" y="80" as="geometry" />
        </mxCell>
        <mxCell id="M9WVtqgSQ9D_E9_VqV0K-177" value="否" style="edgeLabel;html=1;align=center;verticalAlign=middle;resizable=0;points=[];" parent="M9WVtqgSQ9D_E9_VqV0K-176" vertex="1" connectable="0">
          <mxGeometry x="-0.0353" y="1" relative="1" as="geometry">
            <mxPoint x="-1" y="-3.43" as="offset" />
          </mxGeometry>
        </mxCell>
        <mxCell id="M9WVtqgSQ9D_E9_VqV0K-181" style="edgeStyle=orthogonalEdgeStyle;rounded=0;orthogonalLoop=1;jettySize=auto;html=1;entryX=0.5;entryY=0;entryDx=0;entryDy=0;exitX=0;exitY=0.5;exitDx=0;exitDy=0;" parent="1" source="M9WVtqgSQ9D_E9_VqV0K-170" target="_u0KSfqB_Zb8n4j6yfHZ-55" edge="1">
          <mxGeometry x="1000" y="80" as="geometry">
            <mxPoint x="1217" y="834" as="targetPoint" />
            <mxPoint x="1250" y="500" as="sourcePoint" />
            <Array as="points">
              <mxPoint x="1340" y="470" />
              <mxPoint x="1160" y="470" />
            </Array>
          </mxGeometry>
        </mxCell>
        <mxCell id="M9WVtqgSQ9D_E9_VqV0K-182" value="是" style="edgeLabel;html=1;align=center;verticalAlign=middle;resizable=0;points=[];" parent="M9WVtqgSQ9D_E9_VqV0K-181" vertex="1" connectable="0">
          <mxGeometry x="-0.7801" y="-1" relative="1" as="geometry">
            <mxPoint x="-39.1" y="1" as="offset" />
          </mxGeometry>
        </mxCell>
        <mxCell id="M9WVtqgSQ9D_E9_VqV0K-183" style="edgeStyle=orthogonalEdgeStyle;rounded=0;orthogonalLoop=1;jettySize=auto;html=1;entryX=0.5;entryY=0;entryDx=0;entryDy=0;exitX=0;exitY=0.5;exitDx=0;exitDy=0;" parent="1" source="M9WVtqgSQ9D_E9_VqV0K-172" target="_u0KSfqB_Zb8n4j6yfHZ-55" edge="1">
          <mxGeometry x="1000" y="80" as="geometry">
            <mxPoint x="1217" y="834" as="targetPoint" />
            <Array as="points">
              <mxPoint x="1160" y="595" />
            </Array>
          </mxGeometry>
        </mxCell>
        <mxCell id="M9WVtqgSQ9D_E9_VqV0K-184" value="是" style="edgeLabel;html=1;align=center;verticalAlign=middle;resizable=0;points=[];" parent="M9WVtqgSQ9D_E9_VqV0K-183" vertex="1" connectable="0">
          <mxGeometry x="-0.6858" y="-3" relative="1" as="geometry">
            <mxPoint x="-26.67" y="3" as="offset" />
          </mxGeometry>
        </mxCell>
        <mxCell id="M9WVtqgSQ9D_E9_VqV0K-185" style="edgeStyle=orthogonalEdgeStyle;rounded=0;orthogonalLoop=1;jettySize=auto;html=1;entryX=0.5;entryY=0;entryDx=0;entryDy=0;exitX=0;exitY=0.5;exitDx=0;exitDy=0;" parent="1" source="M9WVtqgSQ9D_E9_VqV0K-175" target="_u0KSfqB_Zb8n4j6yfHZ-55" edge="1">
          <mxGeometry x="1000" y="80" as="geometry">
            <mxPoint x="1170" y="790" as="targetPoint" />
            <mxPoint x="1290" y="700" as="sourcePoint" />
            <Array as="points">
              <mxPoint x="1160" y="705" />
            </Array>
          </mxGeometry>
        </mxCell>
        <mxCell id="M9WVtqgSQ9D_E9_VqV0K-186" value="是" style="edgeLabel;html=1;align=center;verticalAlign=middle;resizable=0;points=[];" parent="M9WVtqgSQ9D_E9_VqV0K-185" vertex="1" connectable="0">
          <mxGeometry x="-0.5682" relative="1" as="geometry">
            <mxPoint x="-19.05" as="offset" />
          </mxGeometry>
        </mxCell>
        <mxCell id="M9WVtqgSQ9D_E9_VqV0K-189" style="edgeStyle=orthogonalEdgeStyle;rounded=0;orthogonalLoop=1;jettySize=auto;html=1;exitX=0.5;exitY=1;exitDx=0;exitDy=0;" parent="1" source="_u0KSfqB_Zb8n4j6yfHZ-137" edge="1">
          <mxGeometry x="1000" y="80" as="geometry">
            <mxPoint x="1415" y="1139" as="targetPoint" />
            <Array as="points">
              <mxPoint x="1170" y="1093" />
              <mxPoint x="1170" y="1110" />
              <mxPoint x="1415" y="1110" />
            </Array>
            <mxPoint x="1304" y="1093" as="sourcePoint" />
          </mxGeometry>
        </mxCell>
        <mxCell id="M9WVtqgSQ9D_E9_VqV0K-194" value="开始进站" style="rounded=1;whiteSpace=wrap;html=1;fillColor=#dae8fc;strokeColor=#6c8ebf;" parent="1" vertex="1">
          <mxGeometry x="1390" y="80" width="100" height="50" as="geometry" />
        </mxCell>
        <mxCell id="M9WVtqgSQ9D_E9_VqV0K-200" value="" style="edgeStyle=orthogonalEdgeStyle;rounded=0;orthogonalLoop=1;jettySize=auto;html=1;strokeColor=#000000;" parent="1" source="M9WVtqgSQ9D_E9_VqV0K-201" target="M9WVtqgSQ9D_E9_VqV0K-143" edge="1">
          <mxGeometry x="1000" y="80" as="geometry" />
        </mxCell>
        <mxCell id="M9WVtqgSQ9D_E9_VqV0K-201" value="人脸识别不通过" style="rounded=0;whiteSpace=wrap;html=1;fillColor=#f5f5f5;strokeColor=#666666;gradientColor=#b3b3b3;" parent="1" vertex="1">
          <mxGeometry x="1390" y="1043" width="100" height="50" as="geometry" />
        </mxCell>
        <mxCell id="M9WVtqgSQ9D_E9_VqV0K-208" value="闸机面板" style="text;html=1;strokeColor=none;fillColor=none;align=center;verticalAlign=middle;whiteSpace=wrap;rounded=0;" parent="1" vertex="1">
          <mxGeometry x="1824" y="306" width="58" height="20" as="geometry" />
        </mxCell>
        <mxCell id="M9WVtqgSQ9D_E9_VqV0K-209" value="人脸识别平台" style="text;html=1;strokeColor=none;fillColor=none;align=center;verticalAlign=middle;whiteSpace=wrap;rounded=0;" parent="1" vertex="1">
          <mxGeometry x="1804" y="327" width="78" height="20" as="geometry" />
        </mxCell>
        <mxCell id="M9WVtqgSQ9D_E9_VqV0K-210" value="闸机面板" style="text;html=1;strokeColor=none;fillColor=none;align=left;verticalAlign=middle;whiteSpace=wrap;rounded=0;" parent="1" vertex="1">
          <mxGeometry x="1004" y="306" width="58" height="20" as="geometry" />
        </mxCell>
        <mxCell id="M9WVtqgSQ9D_E9_VqV0K-211" value="人脸识别平台" style="text;html=1;strokeColor=none;fillColor=none;align=left;verticalAlign=middle;whiteSpace=wrap;rounded=0;" parent="1" vertex="1">
          <mxGeometry x="1004" y="327" width="78" height="20" as="geometry" />
        </mxCell>
        <mxCell id="M9WVtqgSQ9D_E9_VqV0K-212" value="" style="endArrow=none;dashed=1;html=1;fillColor=#f8cecc;strokeColor=#FF0000;" parent="1" edge="1">
          <mxGeometry x="1000" y="80" width="50" height="50" as="geometry">
            <mxPoint x="1000" y="1019" as="sourcePoint" />
            <mxPoint x="1880" y="1019" as="targetPoint" />
          </mxGeometry>
        </mxCell>
        <mxCell id="M9WVtqgSQ9D_E9_VqV0K-213" value="人脸识别平台" style="text;html=1;strokeColor=none;fillColor=none;align=right;verticalAlign=middle;whiteSpace=wrap;rounded=0;" parent="1" vertex="1">
          <mxGeometry x="1794" y="999" width="88" height="20" as="geometry" />
        </mxCell>
        <mxCell id="M9WVtqgSQ9D_E9_VqV0K-214" value="闸机面板" style="text;html=1;strokeColor=none;fillColor=none;align=right;verticalAlign=middle;whiteSpace=wrap;rounded=0;" parent="1" vertex="1">
          <mxGeometry x="1804" y="1020" width="78" height="20" as="geometry" />
        </mxCell>
        <mxCell id="M9WVtqgSQ9D_E9_VqV0K-215" value="人脸识别平台" style="text;html=1;strokeColor=none;fillColor=none;align=left;verticalAlign=middle;whiteSpace=wrap;rounded=0;" parent="1" vertex="1">
          <mxGeometry x="1004" y="999" width="80" height="20" as="geometry" />
        </mxCell>
        <mxCell id="M9WVtqgSQ9D_E9_VqV0K-216" value="闸机面板" style="text;html=1;strokeColor=none;fillColor=none;align=left;verticalAlign=middle;whiteSpace=wrap;rounded=0;" parent="1" vertex="1">
          <mxGeometry x="1004" y="1020" width="78" height="20" as="geometry" />
        </mxCell>
        <mxCell id="M9WVtqgSQ9D_E9_VqV0K-217" value="" style="edgeStyle=orthogonalEdgeStyle;rounded=0;orthogonalLoop=1;jettySize=auto;html=1;exitX=0.5;exitY=1;exitDx=0;exitDy=0;entryX=0.5;entryY=0;entryDx=0;entryDy=0;" parent="1" source="M9WVtqgSQ9D_E9_VqV0K-218" target="M9WVtqgSQ9D_E9_VqV0K-144" edge="1">
          <mxGeometry y="80" as="geometry">
            <mxPoint y="-12" as="offset" />
          </mxGeometry>
        </mxCell>
        <mxCell id="wJslKxtzTdJbA1gBJVCl-11" value="是" style="edgeLabel;html=1;align=center;verticalAlign=middle;resizable=0;points=[];" parent="M9WVtqgSQ9D_E9_VqV0K-217" vertex="1" connectable="0">
          <mxGeometry relative="1" as="geometry">
            <mxPoint y="-14" as="offset" />
          </mxGeometry>
        </mxCell>
        <mxCell id="M9WVtqgSQ9D_E9_VqV0K-218" value="3D结构光&lt;br&gt;活体检测？" style="rhombus;whiteSpace=wrap;html=1;" parent="1" vertex="1">
          <mxGeometry x="1390" y="160" width="100" height="50" as="geometry" />
        </mxCell>
        <mxCell id="M9WVtqgSQ9D_E9_VqV0K-219" style="edgeStyle=orthogonalEdgeStyle;rounded=0;orthogonalLoop=1;jettySize=auto;html=1;exitX=0.5;exitY=1;exitDx=0;exitDy=0;" parent="1" source="M9WVtqgSQ9D_E9_VqV0K-194" target="M9WVtqgSQ9D_E9_VqV0K-218" edge="1">
          <mxGeometry x="1000" y="80" as="geometry" />
        </mxCell>
        <mxCell id="M9WVtqgSQ9D_E9_VqV0K-220" style="edgeStyle=orthogonalEdgeStyle;rounded=0;orthogonalLoop=1;jettySize=auto;html=1;entryX=1;entryY=0.5;entryDx=0;entryDy=0;exitX=0.5;exitY=0;exitDx=0;exitDy=0;opacity=50;dashed=1;" parent="1" source="M9WVtqgSQ9D_E9_VqV0K-221" target="M9WVtqgSQ9D_E9_VqV0K-194" edge="1">
          <mxGeometry x="1000" y="80" as="geometry" />
        </mxCell>
        <mxCell id="M9WVtqgSQ9D_E9_VqV0K-221" value="人脸识别不通过" style="rounded=0;whiteSpace=wrap;html=1;fillColor=#f5f5f5;strokeColor=#666666;gradientColor=#b3b3b3;" parent="1" vertex="1">
          <mxGeometry x="1574" y="160" width="100" height="50" as="geometry" />
        </mxCell>
        <mxCell id="M9WVtqgSQ9D_E9_VqV0K-222" value="否" style="edgeStyle=orthogonalEdgeStyle;rounded=0;orthogonalLoop=1;jettySize=auto;html=1;" parent="1" source="M9WVtqgSQ9D_E9_VqV0K-218" target="M9WVtqgSQ9D_E9_VqV0K-221" edge="1">
          <mxGeometry y="80" as="geometry">
            <mxPoint x="-1" as="offset" />
          </mxGeometry>
        </mxCell>
        <mxCell id="M9WVtqgSQ9D_E9_VqV0K-223" value="10W级" style="text;html=1;strokeColor=none;fillColor=none;align=center;verticalAlign=middle;whiteSpace=wrap;rounded=0;fontColor=#FF0000;fontStyle=2" parent="1" vertex="1">
          <mxGeometry x="1310" y="452" width="48" height="20" as="geometry" />
        </mxCell>
        <mxCell id="M9WVtqgSQ9D_E9_VqV0K-224" value="100W级" style="text;html=1;strokeColor=none;fillColor=none;align=center;verticalAlign=middle;whiteSpace=wrap;rounded=0;fontColor=#FF0000;fontStyle=2" parent="1" vertex="1">
          <mxGeometry x="1310" y="575" width="48" height="20" as="geometry" />
        </mxCell>
        <mxCell id="M9WVtqgSQ9D_E9_VqV0K-225" value="500W级" style="text;html=1;strokeColor=none;fillColor=none;align=center;verticalAlign=middle;whiteSpace=wrap;rounded=0;fontColor=#FF0000;fontStyle=2" parent="1" vertex="1">
          <mxGeometry x="1310" y="675" width="48" height="20" as="geometry" />
        </mxCell>
        <mxCell id="M9WVtqgSQ9D_E9_VqV0K-253" value="&lt;font style=&quot;font-size: 14px ; line-height: 160%&quot;&gt;备注说明：&lt;br&gt;1. 3D结构光活体检测在闸机面板上实现，人脸质量分(云从提供)判断也在闸机面板上实现；&lt;br&gt;2. 站点常旅客库是由该站点所有比对成功记录汇聚形成的动态库，底库量级在10W左右，当底库超过10W时，根据LRU算法将历史数据删除；&lt;br&gt;3. 线路常旅客库是由该线路所有比对成功记录汇聚形成的动态库，底库量级在100W左右，当底库超过100W时，根据LRU算法将历史数据删除；&lt;br&gt;4. 进站旅客动态库是指所有已经进站旅客的动态库，主要用于出站时人脸比对，原则上所有出站乘客应该都在进站旅客动态库中；&lt;br&gt;&lt;br&gt;&lt;/font&gt;" style="text;html=1;strokeColor=none;fillColor=none;align=left;verticalAlign=top;whiteSpace=wrap;rounded=0;" parent="1" vertex="1">
          <mxGeometry x="1000" y="1230" width="1000" height="180" as="geometry" />
        </mxCell>
        <mxCell id="M9WVtqgSQ9D_E9_VqV0K-259" value="&lt;font style=&quot;font-size: 32px&quot;&gt;刷脸进站流程&lt;/font&gt;" style="text;html=1;strokeColor=none;fillColor=none;align=center;verticalAlign=middle;whiteSpace=wrap;rounded=0;" parent="1" vertex="1">
          <mxGeometry x="1337" width="206" height="20" as="geometry" />
        </mxCell>
        <mxCell id="h1nzsoqnnWIRRyqZ6HZJ-29" style="edgeStyle=orthogonalEdgeStyle;rounded=0;orthogonalLoop=1;jettySize=auto;html=1;exitX=0.5;exitY=1;exitDx=0;exitDy=0;entryX=0.5;entryY=0;entryDx=0;entryDy=0;" parent="1" source="M9WVtqgSQ9D_E9_VqV0K-175" target="M9WVtqgSQ9D_E9_VqV0K-201" edge="1">
          <mxGeometry as="geometry">
            <mxPoint x="1440" y="720" as="targetPoint" />
          </mxGeometry>
        </mxCell>
        <mxCell id="h1nzsoqnnWIRRyqZ6HZJ-31" value="否" style="edgeLabel;html=1;align=center;verticalAlign=middle;resizable=0;points=[];" parent="h1nzsoqnnWIRRyqZ6HZJ-29" vertex="1" connectable="0">
          <mxGeometry x="-0.0758" relative="1" as="geometry">
            <mxPoint y="-39" as="offset" />
          </mxGeometry>
        </mxCell>
        <mxCell id="_u0KSfqB_Zb8n4j6yfHZ-141" style="edgeStyle=orthogonalEdgeStyle;rounded=0;orthogonalLoop=1;jettySize=auto;html=1;exitX=0;exitY=0.5;exitDx=0;exitDy=0;startArrow=classic;startFill=1;endArrow=none;endFill=0;strokeColor=#000000;" parent="1" source="h1nzsoqnnWIRRyqZ6HZJ-2" edge="1">
          <mxGeometry relative="1" as="geometry">
            <mxPoint x="1160" y="970" as="targetPoint" />
            <mxPoint x="1245" y="970" as="sourcePoint" />
          </mxGeometry>
        </mxCell>
        <mxCell id="_u0KSfqB_Zb8n4j6yfHZ-143" style="edgeStyle=orthogonalEdgeStyle;rounded=0;orthogonalLoop=1;jettySize=auto;html=1;exitX=0.5;exitY=1;exitDx=0;exitDy=0;startArrow=none;startFill=0;endArrow=classic;endFill=1;strokeColor=#000000;" parent="1" source="h1nzsoqnnWIRRyqZ6HZJ-2" edge="1">
          <mxGeometry relative="1" as="geometry">
            <mxPoint x="1315" y="1110" as="targetPoint" />
            <Array as="points">
              <mxPoint x="1315" y="1110" />
            </Array>
          </mxGeometry>
        </mxCell>
        <mxCell id="h1nzsoqnnWIRRyqZ6HZJ-2" value="&lt;font style=&quot;font-size: 11px&quot;&gt;新增或更新站点常旅客库、线路常旅客库；&lt;br style=&quot;font-size: 11px&quot;&gt;将该人员底库的人脸特征值添加到进站旅客动态库；&lt;/font&gt;" style="rounded=0;whiteSpace=wrap;html=1;align=left;" parent="1" vertex="1">
          <mxGeometry x="1240" y="940" width="150" height="60" as="geometry" />
        </mxCell>
        <mxCell id="wJslKxtzTdJbA1gBJVCl-86" value="&lt;font style=&quot;font-size: 14px ; line-height: 160%&quot;&gt;备注说明：&lt;br&gt;1. 3D结构光活体检测在闸机面板上实现，人脸质量分(云从提供)判断也在闸机面板上实现；&lt;br&gt;2. 站点常旅客库是由该站点所有比对成功记录汇聚形成的动态库，底库量级在10W左右，当底库超过10W时，根据LRU算法将历史数据删除；&lt;br&gt;3. 线路常旅客库是由该线路所有比对成功记录汇聚形成的动态库，底库量级在100W左右，当底库超过100W时，根据LRU算法将历史数据删除；&lt;br&gt;4. 进站旅客动态库是指所有已经进站旅客的动态库，主要用于出站时人脸比对，原则上所有出站乘客应该都在进站旅客动态库中；&lt;br&gt;&lt;/font&gt;" style="text;html=1;strokeColor=none;fillColor=none;align=left;verticalAlign=top;whiteSpace=wrap;rounded=0;" parent="1" vertex="1">
          <mxGeometry x="2000" y="1230" width="1000" height="180" as="geometry" />
        </mxCell>
        <mxCell id="_u0KSfqB_Zb8n4j6yfHZ-1" value="" style="group" parent="1" vertex="1" connectable="0">
          <mxGeometry x="-100" y="10" width="1020" height="1350" as="geometry" />
        </mxCell>
        <mxCell id="M9WVtqgSQ9D_E9_VqV0K-227" value="提示摘下口罩" style="rounded=0;whiteSpace=wrap;html=1;" parent="_u0KSfqB_Zb8n4j6yfHZ-1" vertex="1">
          <mxGeometry x="390" y="160" width="100" height="50" as="geometry" />
        </mxCell>
        <mxCell id="Dk_nju9nJkwJKH275Vij-2" value="动作活体检测？" style="rhombus;whiteSpace=wrap;html=1;" parent="_u0KSfqB_Zb8n4j6yfHZ-1" vertex="1">
          <mxGeometry x="390" y="255" width="100" height="50" as="geometry" />
        </mxCell>
        <mxCell id="M9WVtqgSQ9D_E9_VqV0K-230" style="edgeStyle=orthogonalEdgeStyle;rounded=0;orthogonalLoop=1;jettySize=auto;html=1;exitX=0.5;exitY=1;exitDx=0;exitDy=0;entryX=0.5;entryY=0;entryDx=0;entryDy=0;" parent="_u0KSfqB_Zb8n4j6yfHZ-1" target="M9WVtqgSQ9D_E9_VqV0K-227" edge="1">
          <mxGeometry as="geometry">
            <mxPoint x="440.0000000000009" y="130" as="sourcePoint" />
          </mxGeometry>
        </mxCell>
        <mxCell id="Dk_nju9nJkwJKH275Vij-78" value="" style="endArrow=none;dashed=1;html=1;fillColor=#f8cecc;strokeColor=#FF0000;" parent="_u0KSfqB_Zb8n4j6yfHZ-1" edge="1">
          <mxGeometry y="80" width="50" height="50" as="geometry">
            <mxPoint y="326" as="sourcePoint" />
            <mxPoint x="950" y="326" as="targetPoint" />
          </mxGeometry>
        </mxCell>
        <mxCell id="Dk_nju9nJkwJKH275Vij-90" value="App端" style="text;html=1;strokeColor=none;fillColor=none;align=center;verticalAlign=middle;whiteSpace=wrap;rounded=0;" parent="_u0KSfqB_Zb8n4j6yfHZ-1" vertex="1">
          <mxGeometry x="890" y="305" width="58" height="20" as="geometry" />
        </mxCell>
        <mxCell id="Dk_nju9nJkwJKH275Vij-91" value="人脸识别平台" style="text;html=1;strokeColor=none;fillColor=none;align=center;verticalAlign=middle;whiteSpace=wrap;rounded=0;" parent="_u0KSfqB_Zb8n4j6yfHZ-1" vertex="1">
          <mxGeometry x="870" y="326" width="78" height="20" as="geometry" />
        </mxCell>
        <mxCell id="Dk_nju9nJkwJKH275Vij-92" value="App端" style="text;html=1;strokeColor=none;fillColor=none;align=left;verticalAlign=middle;whiteSpace=wrap;rounded=0;" parent="_u0KSfqB_Zb8n4j6yfHZ-1" vertex="1">
          <mxGeometry x="4" y="306" width="58" height="20" as="geometry" />
        </mxCell>
        <mxCell id="Dk_nju9nJkwJKH275Vij-93" value="人脸识别平台" style="text;html=1;strokeColor=none;fillColor=none;align=left;verticalAlign=middle;whiteSpace=wrap;rounded=0;" parent="_u0KSfqB_Zb8n4j6yfHZ-1" vertex="1">
          <mxGeometry x="4" y="327" width="78" height="20" as="geometry" />
        </mxCell>
        <mxCell id="nnZQlmuL2Tk7FEm4BFCz-8" value="是" style="edgeStyle=orthogonalEdgeStyle;rounded=0;orthogonalLoop=1;jettySize=auto;html=1;entryX=0.5;entryY=0;entryDx=0;entryDy=0;" parent="_u0KSfqB_Zb8n4j6yfHZ-1" target="Dk_nju9nJkwJKH275Vij-2" edge="1">
          <mxGeometry y="80" as="geometry">
            <mxPoint x="440" y="210" as="sourcePoint" />
            <Array as="points">
              <mxPoint x="440" y="230" />
              <mxPoint x="440" y="230" />
            </Array>
            <mxPoint y="-2" as="offset" />
          </mxGeometry>
        </mxCell>
        <mxCell id="nnZQlmuL2Tk7FEm4BFCz-9" value="人脸识别不通过" style="rounded=0;whiteSpace=wrap;html=1;fillColor=#f5f5f5;strokeColor=#666666;gradientColor=#b3b3b3;" parent="_u0KSfqB_Zb8n4j6yfHZ-1" vertex="1">
          <mxGeometry x="670" y="256" width="100" height="50" as="geometry" />
        </mxCell>
        <mxCell id="M9WVtqgSQ9D_E9_VqV0K-231" value="否" style="edgeStyle=orthogonalEdgeStyle;rounded=0;orthogonalLoop=1;jettySize=auto;html=1;exitX=1;exitY=0.5;exitDx=0;exitDy=0;strokeColor=#000000;" parent="_u0KSfqB_Zb8n4j6yfHZ-1" source="Dk_nju9nJkwJKH275Vij-2" target="nnZQlmuL2Tk7FEm4BFCz-9" edge="1">
          <mxGeometry as="geometry">
            <mxPoint as="offset" />
          </mxGeometry>
        </mxCell>
        <mxCell id="M9WVtqgSQ9D_E9_VqV0K-258" value="&lt;font style=&quot;font-size: 32px&quot;&gt;人脸注册流程&lt;/font&gt;" style="text;html=1;strokeColor=none;fillColor=none;align=center;verticalAlign=middle;whiteSpace=wrap;rounded=0;" parent="_u0KSfqB_Zb8n4j6yfHZ-1" vertex="1">
          <mxGeometry x="337" width="206" height="20" as="geometry" />
        </mxCell>
        <mxCell id="1f0OFDxYb1WzkCkjiEqP-20" value="" style="group" parent="_u0KSfqB_Zb8n4j6yfHZ-1" vertex="1" connectable="0">
          <mxGeometry width="1020" height="1350" as="geometry" />
        </mxCell>
        <mxCell id="1f0OFDxYb1WzkCkjiEqP-24" value="提示摘下口罩" style="rounded=0;whiteSpace=wrap;html=1;" parent="1f0OFDxYb1WzkCkjiEqP-20" vertex="1">
          <mxGeometry x="390" y="160" width="100" height="50" as="geometry" />
        </mxCell>
        <mxCell id="1f0OFDxYb1WzkCkjiEqP-26" value="动作活体检测？" style="rhombus;whiteSpace=wrap;html=1;" parent="1f0OFDxYb1WzkCkjiEqP-20" vertex="1">
          <mxGeometry x="390" y="255" width="100" height="50" as="geometry" />
        </mxCell>
        <mxCell id="1f0OFDxYb1WzkCkjiEqP-31" style="edgeStyle=orthogonalEdgeStyle;rounded=0;orthogonalLoop=1;jettySize=auto;html=1;exitX=0.5;exitY=1;exitDx=0;exitDy=0;entryX=0.5;entryY=0;entryDx=0;entryDy=0;" parent="1f0OFDxYb1WzkCkjiEqP-20" source="1f0OFDxYb1WzkCkjiEqP-32" target="1f0OFDxYb1WzkCkjiEqP-24" edge="1">
          <mxGeometry as="geometry" />
        </mxCell>
        <mxCell id="1f0OFDxYb1WzkCkjiEqP-32" value="开始注册" style="rounded=1;whiteSpace=wrap;html=1;fillColor=#dae8fc;strokeColor=#6c8ebf;" parent="1f0OFDxYb1WzkCkjiEqP-20" vertex="1">
          <mxGeometry x="390" y="50" width="100" height="50" as="geometry" />
        </mxCell>
        <mxCell id="1f0OFDxYb1WzkCkjiEqP-33" value="" style="endArrow=none;dashed=1;html=1;fillColor=#f8cecc;strokeColor=#FF0000;" parent="1f0OFDxYb1WzkCkjiEqP-20" edge="1">
          <mxGeometry y="80" width="50" height="50" as="geometry">
            <mxPoint y="326" as="sourcePoint" />
            <mxPoint x="950" y="326" as="targetPoint" />
          </mxGeometry>
        </mxCell>
        <mxCell id="1f0OFDxYb1WzkCkjiEqP-35" value="App端" style="text;html=1;strokeColor=none;fillColor=none;align=center;verticalAlign=middle;whiteSpace=wrap;rounded=0;" parent="1f0OFDxYb1WzkCkjiEqP-20" vertex="1">
          <mxGeometry x="890" y="305" width="58" height="20" as="geometry" />
        </mxCell>
        <mxCell id="1f0OFDxYb1WzkCkjiEqP-36" value="人脸识别平台" style="text;html=1;strokeColor=none;fillColor=none;align=center;verticalAlign=middle;whiteSpace=wrap;rounded=0;" parent="1f0OFDxYb1WzkCkjiEqP-20" vertex="1">
          <mxGeometry x="870" y="326" width="78" height="20" as="geometry" />
        </mxCell>
        <mxCell id="1f0OFDxYb1WzkCkjiEqP-37" value="App端" style="text;html=1;strokeColor=none;fillColor=none;align=left;verticalAlign=middle;whiteSpace=wrap;rounded=0;" parent="1f0OFDxYb1WzkCkjiEqP-20" vertex="1">
          <mxGeometry x="4" y="306" width="58" height="20" as="geometry" />
        </mxCell>
        <mxCell id="1f0OFDxYb1WzkCkjiEqP-38" value="人脸识别平台" style="text;html=1;strokeColor=none;fillColor=none;align=left;verticalAlign=middle;whiteSpace=wrap;rounded=0;" parent="1f0OFDxYb1WzkCkjiEqP-20" vertex="1">
          <mxGeometry x="4" y="327" width="78" height="20" as="geometry" />
        </mxCell>
        <mxCell id="1f0OFDxYb1WzkCkjiEqP-39" value="" style="endArrow=none;dashed=1;html=1;fillColor=#f8cecc;strokeColor=#FF0000;" parent="1f0OFDxYb1WzkCkjiEqP-20" edge="1">
          <mxGeometry y="240.57" width="50" height="50" as="geometry">
            <mxPoint y="1179.57" as="sourcePoint" />
            <mxPoint x="980" y="1180" as="targetPoint" />
          </mxGeometry>
        </mxCell>
        <mxCell id="1f0OFDxYb1WzkCkjiEqP-44" value="是" style="edgeStyle=orthogonalEdgeStyle;rounded=0;orthogonalLoop=1;jettySize=auto;html=1;entryX=0.5;entryY=0;entryDx=0;entryDy=0;" parent="1f0OFDxYb1WzkCkjiEqP-20" target="1f0OFDxYb1WzkCkjiEqP-26" edge="1">
          <mxGeometry y="80" as="geometry">
            <mxPoint x="440" y="210" as="sourcePoint" />
            <Array as="points">
              <mxPoint x="440" y="230" />
              <mxPoint x="440" y="230" />
            </Array>
            <mxPoint y="-2" as="offset" />
          </mxGeometry>
        </mxCell>
        <mxCell id="1f0OFDxYb1WzkCkjiEqP-46" value="人脸识别不通过" style="rounded=0;whiteSpace=wrap;html=1;fillColor=#f5f5f5;strokeColor=#666666;gradientColor=#b3b3b3;" parent="1f0OFDxYb1WzkCkjiEqP-20" vertex="1">
          <mxGeometry x="670" y="256" width="100" height="50" as="geometry" />
        </mxCell>
        <mxCell id="1f0OFDxYb1WzkCkjiEqP-47" value="否" style="edgeStyle=orthogonalEdgeStyle;rounded=0;orthogonalLoop=1;jettySize=auto;html=1;exitX=1;exitY=0.5;exitDx=0;exitDy=0;strokeColor=#000000;" parent="1f0OFDxYb1WzkCkjiEqP-20" source="1f0OFDxYb1WzkCkjiEqP-26" target="1f0OFDxYb1WzkCkjiEqP-46" edge="1">
          <mxGeometry as="geometry">
            <mxPoint as="offset" />
          </mxGeometry>
        </mxCell>
        <mxCell id="1f0OFDxYb1WzkCkjiEqP-57" value="&lt;font style=&quot;font-size: 32px&quot;&gt;人脸注册流程&lt;/font&gt;" style="text;html=1;strokeColor=none;fillColor=none;align=center;verticalAlign=middle;whiteSpace=wrap;rounded=0;" parent="1f0OFDxYb1WzkCkjiEqP-20" vertex="1">
          <mxGeometry x="337" width="206" height="20" as="geometry" />
        </mxCell>
        <mxCell id="M9WVtqgSQ9D_E9_VqV0K-238" value="根据用户设定的常用站点，将该用户的人脸特征值添加到站点常旅客库和线路常旅客库" style="rounded=0;whiteSpace=wrap;html=1;align=center;" parent="1f0OFDxYb1WzkCkjiEqP-20" vertex="1">
          <mxGeometry x="340" y="974" width="200" height="60" as="geometry" />
        </mxCell>
        <mxCell id="M9WVtqgSQ9D_E9_VqV0K-242" style="edgeStyle=orthogonalEdgeStyle;rounded=0;orthogonalLoop=1;jettySize=auto;html=1;exitX=0.5;exitY=1;exitDx=0;exitDy=0;strokeColor=#000000;" parent="1f0OFDxYb1WzkCkjiEqP-20" source="M9WVtqgSQ9D_E9_VqV0K-237" target="M9WVtqgSQ9D_E9_VqV0K-238" edge="1">
          <mxGeometry y="161" as="geometry" />
        </mxCell>
        <mxCell id="M9WVtqgSQ9D_E9_VqV0K-237" value="在App端引导用户&lt;br&gt;设定3～4个常用站点" style="rounded=0;whiteSpace=wrap;html=1;" parent="1f0OFDxYb1WzkCkjiEqP-20" vertex="1">
          <mxGeometry x="340" y="865" width="200" height="60" as="geometry" />
        </mxCell>
        <mxCell id="Dk_nju9nJkwJKH275Vij-67" value="注册结束" style="rounded=1;whiteSpace=wrap;html=1;fillColor=#dae8fc;strokeColor=#6c8ebf;" parent="1f0OFDxYb1WzkCkjiEqP-20" vertex="1">
          <mxGeometry x="390" y="1300" width="100" height="50" as="geometry" />
        </mxCell>
        <mxCell id="nnZQlmuL2Tk7FEm4BFCz-2" value="人脸识别平台" style="text;html=1;strokeColor=none;fillColor=none;align=right;verticalAlign=middle;whiteSpace=wrap;rounded=0;" parent="1f0OFDxYb1WzkCkjiEqP-20" vertex="1">
          <mxGeometry x="890" y="1163" width="88" height="20" as="geometry" />
        </mxCell>
        <mxCell id="nnZQlmuL2Tk7FEm4BFCz-3" value="App端" style="text;html=1;strokeColor=none;fillColor=none;align=right;verticalAlign=middle;whiteSpace=wrap;rounded=0;" parent="1f0OFDxYb1WzkCkjiEqP-20" vertex="1">
          <mxGeometry x="900" y="1184" width="78" height="20" as="geometry" />
        </mxCell>
        <mxCell id="nnZQlmuL2Tk7FEm4BFCz-4" value="人脸识别平台" style="text;html=1;strokeColor=none;fillColor=none;align=left;verticalAlign=middle;whiteSpace=wrap;rounded=0;" parent="1f0OFDxYb1WzkCkjiEqP-20" vertex="1">
          <mxGeometry x="1" y="1160" width="80" height="20" as="geometry" />
        </mxCell>
        <mxCell id="nnZQlmuL2Tk7FEm4BFCz-5" value="App端" style="text;html=1;strokeColor=none;fillColor=none;align=left;verticalAlign=middle;whiteSpace=wrap;rounded=0;" parent="1f0OFDxYb1WzkCkjiEqP-20" vertex="1">
          <mxGeometry x="1" y="1181" width="78" height="20" as="geometry" />
        </mxCell>
        <mxCell id="M9WVtqgSQ9D_E9_VqV0K-245" style="edgeStyle=orthogonalEdgeStyle;rounded=0;orthogonalLoop=1;jettySize=auto;html=1;exitX=0.5;exitY=1;exitDx=0;exitDy=0;entryX=0.5;entryY=0;entryDx=0;entryDy=0;strokeColor=#000000;" parent="1f0OFDxYb1WzkCkjiEqP-20" source="M9WVtqgSQ9D_E9_VqV0K-243" target="M9WVtqgSQ9D_E9_VqV0K-237" edge="1">
          <mxGeometry y="161" as="geometry" />
        </mxCell>
        <mxCell id="M9WVtqgSQ9D_E9_VqV0K-243" value="将该用户的人脸特征值&lt;br&gt;添加到昆明地铁全量库" style="rounded=0;whiteSpace=wrap;html=1;align=center;" parent="1f0OFDxYb1WzkCkjiEqP-20" vertex="1">
          <mxGeometry x="340" y="755" width="200" height="60" as="geometry" />
        </mxCell>
        <mxCell id="M9WVtqgSQ9D_E9_VqV0K-246" value="返回注册结果；" style="rounded=0;whiteSpace=wrap;html=1;fillColor=#f8cecc;strokeColor=#b85450;" parent="1f0OFDxYb1WzkCkjiEqP-20" vertex="1">
          <mxGeometry x="390" y="1204" width="100" height="50" as="geometry" />
        </mxCell>
        <mxCell id="M9WVtqgSQ9D_E9_VqV0K-239" style="edgeStyle=orthogonalEdgeStyle;rounded=0;orthogonalLoop=1;jettySize=auto;html=1;exitX=0.5;exitY=1;exitDx=0;exitDy=0;strokeColor=#000000;" parent="1f0OFDxYb1WzkCkjiEqP-20" source="M9WVtqgSQ9D_E9_VqV0K-246" target="Dk_nju9nJkwJKH275Vij-67" edge="1">
          <mxGeometry y="161" as="geometry" />
        </mxCell>
        <mxCell id="M9WVtqgSQ9D_E9_VqV0K-250" style="edgeStyle=orthogonalEdgeStyle;rounded=0;orthogonalLoop=1;jettySize=auto;html=1;exitX=0.5;exitY=1;exitDx=0;exitDy=0;entryX=0.5;entryY=0;entryDx=0;entryDy=0;strokeColor=#000000;" parent="1f0OFDxYb1WzkCkjiEqP-20" source="M9WVtqgSQ9D_E9_VqV0K-248" target="M9WVtqgSQ9D_E9_VqV0K-246" edge="1">
          <mxGeometry y="161" as="geometry" />
        </mxCell>
        <mxCell id="M9WVtqgSQ9D_E9_VqV0K-248" value="默认开通“戴口罩进出站”功能；" style="rounded=0;whiteSpace=wrap;html=1;" parent="1f0OFDxYb1WzkCkjiEqP-20" vertex="1">
          <mxGeometry x="340" y="1083" width="200" height="60" as="geometry" />
        </mxCell>
        <mxCell id="M9WVtqgSQ9D_E9_VqV0K-249" style="edgeStyle=orthogonalEdgeStyle;rounded=0;orthogonalLoop=1;jettySize=auto;html=1;exitX=0.5;exitY=1;exitDx=0;exitDy=0;entryX=0.5;entryY=0;entryDx=0;entryDy=0;strokeColor=#000000;" parent="1f0OFDxYb1WzkCkjiEqP-20" source="M9WVtqgSQ9D_E9_VqV0K-238" target="M9WVtqgSQ9D_E9_VqV0K-248" edge="1">
          <mxGeometry y="161" as="geometry" />
        </mxCell>
        <mxCell id="1f0OFDxYb1WzkCkjiEqP-21" value="根据用户设定的常用站点，将该用户的人脸特征值添加到站点常旅客库和线路常旅客库" style="rounded=0;whiteSpace=wrap;html=1;align=center;" parent="1f0OFDxYb1WzkCkjiEqP-20" vertex="1">
          <mxGeometry x="340" y="974" width="200" height="60" as="geometry" />
        </mxCell>
        <mxCell id="1f0OFDxYb1WzkCkjiEqP-22" style="edgeStyle=orthogonalEdgeStyle;rounded=0;orthogonalLoop=1;jettySize=auto;html=1;exitX=0.5;exitY=1;exitDx=0;exitDy=0;strokeColor=#000000;" parent="1f0OFDxYb1WzkCkjiEqP-20" source="1f0OFDxYb1WzkCkjiEqP-23" target="1f0OFDxYb1WzkCkjiEqP-21" edge="1">
          <mxGeometry y="161" as="geometry" />
        </mxCell>
        <mxCell id="1f0OFDxYb1WzkCkjiEqP-23" value="在App端引导用户&lt;br&gt;设定3～4个常用站点" style="rounded=0;whiteSpace=wrap;html=1;" parent="1f0OFDxYb1WzkCkjiEqP-20" vertex="1">
          <mxGeometry x="340" y="865" width="200" height="60" as="geometry" />
        </mxCell>
        <mxCell id="1f0OFDxYb1WzkCkjiEqP-25" value="注册结束" style="rounded=1;whiteSpace=wrap;html=1;fillColor=#dae8fc;strokeColor=#6c8ebf;" parent="1f0OFDxYb1WzkCkjiEqP-20" vertex="1">
          <mxGeometry x="390" y="1300" width="100" height="50" as="geometry" />
        </mxCell>
        <mxCell id="1f0OFDxYb1WzkCkjiEqP-40" value="人脸识别平台" style="text;html=1;strokeColor=none;fillColor=none;align=right;verticalAlign=middle;whiteSpace=wrap;rounded=0;" parent="1f0OFDxYb1WzkCkjiEqP-20" vertex="1">
          <mxGeometry x="890" y="1163" width="88" height="20" as="geometry" />
        </mxCell>
        <mxCell id="1f0OFDxYb1WzkCkjiEqP-41" value="App端" style="text;html=1;strokeColor=none;fillColor=none;align=right;verticalAlign=middle;whiteSpace=wrap;rounded=0;" parent="1f0OFDxYb1WzkCkjiEqP-20" vertex="1">
          <mxGeometry x="900" y="1184" width="78" height="20" as="geometry" />
        </mxCell>
        <mxCell id="1f0OFDxYb1WzkCkjiEqP-42" value="人脸识别平台" style="text;html=1;strokeColor=none;fillColor=none;align=left;verticalAlign=middle;whiteSpace=wrap;rounded=0;" parent="1f0OFDxYb1WzkCkjiEqP-20" vertex="1">
          <mxGeometry x="1" y="1160" width="80" height="20" as="geometry" />
        </mxCell>
        <mxCell id="1f0OFDxYb1WzkCkjiEqP-43" value="App端" style="text;html=1;strokeColor=none;fillColor=none;align=left;verticalAlign=middle;whiteSpace=wrap;rounded=0;" parent="1f0OFDxYb1WzkCkjiEqP-20" vertex="1">
          <mxGeometry x="1" y="1181" width="78" height="20" as="geometry" />
        </mxCell>
        <mxCell id="1f0OFDxYb1WzkCkjiEqP-50" style="edgeStyle=orthogonalEdgeStyle;rounded=0;orthogonalLoop=1;jettySize=auto;html=1;exitX=0.5;exitY=1;exitDx=0;exitDy=0;entryX=0.5;entryY=0;entryDx=0;entryDy=0;strokeColor=#000000;" parent="1f0OFDxYb1WzkCkjiEqP-20" source="1f0OFDxYb1WzkCkjiEqP-51" target="1f0OFDxYb1WzkCkjiEqP-23" edge="1">
          <mxGeometry y="161" as="geometry" />
        </mxCell>
        <mxCell id="1f0OFDxYb1WzkCkjiEqP-51" value="将该用户的人脸大特征值&lt;br&gt;添加到昆明地铁全量库" style="rounded=0;whiteSpace=wrap;html=1;align=center;" parent="1f0OFDxYb1WzkCkjiEqP-20" vertex="1">
          <mxGeometry x="340" y="755" width="200" height="60" as="geometry" />
        </mxCell>
        <mxCell id="1f0OFDxYb1WzkCkjiEqP-52" value="返回注册结果；" style="rounded=0;whiteSpace=wrap;html=1;fillColor=#f8cecc;strokeColor=#b85450;" parent="1f0OFDxYb1WzkCkjiEqP-20" vertex="1">
          <mxGeometry x="390" y="1204" width="100" height="50" as="geometry" />
        </mxCell>
        <mxCell id="1f0OFDxYb1WzkCkjiEqP-53" style="edgeStyle=orthogonalEdgeStyle;rounded=0;orthogonalLoop=1;jettySize=auto;html=1;exitX=0.5;exitY=1;exitDx=0;exitDy=0;strokeColor=#000000;" parent="1f0OFDxYb1WzkCkjiEqP-20" source="1f0OFDxYb1WzkCkjiEqP-52" target="1f0OFDxYb1WzkCkjiEqP-25" edge="1">
          <mxGeometry y="161" as="geometry" />
        </mxCell>
        <mxCell id="1f0OFDxYb1WzkCkjiEqP-54" style="edgeStyle=orthogonalEdgeStyle;rounded=0;orthogonalLoop=1;jettySize=auto;html=1;exitX=0.5;exitY=1;exitDx=0;exitDy=0;entryX=0.5;entryY=0;entryDx=0;entryDy=0;strokeColor=#000000;" parent="1f0OFDxYb1WzkCkjiEqP-20" source="1f0OFDxYb1WzkCkjiEqP-55" target="1f0OFDxYb1WzkCkjiEqP-52" edge="1">
          <mxGeometry y="161" as="geometry" />
        </mxCell>
        <mxCell id="1f0OFDxYb1WzkCkjiEqP-55" value="默认开通“戴口罩进出站”功能；" style="rounded=0;whiteSpace=wrap;html=1;" parent="1f0OFDxYb1WzkCkjiEqP-20" vertex="1">
          <mxGeometry x="340" y="1083" width="200" height="60" as="geometry" />
        </mxCell>
        <mxCell id="1f0OFDxYb1WzkCkjiEqP-56" style="edgeStyle=orthogonalEdgeStyle;rounded=0;orthogonalLoop=1;jettySize=auto;html=1;exitX=0.5;exitY=1;exitDx=0;exitDy=0;entryX=0.5;entryY=0;entryDx=0;entryDy=0;strokeColor=#000000;" parent="1f0OFDxYb1WzkCkjiEqP-20" source="1f0OFDxYb1WzkCkjiEqP-21" target="1f0OFDxYb1WzkCkjiEqP-55" edge="1">
          <mxGeometry y="161" as="geometry" />
        </mxCell>
        <mxCell id="1f0OFDxYb1WzkCkjiEqP-2" value="人脸大库查重相似度&lt;br&gt;超过异常用户阈值？" style="rhombus;whiteSpace=wrap;html=1;" parent="1f0OFDxYb1WzkCkjiEqP-20" vertex="1">
          <mxGeometry x="335" y="510" width="210" height="60" as="geometry" />
        </mxCell>
        <mxCell id="1f0OFDxYb1WzkCkjiEqP-138" style="edgeStyle=orthogonalEdgeStyle;rounded=0;orthogonalLoop=1;jettySize=auto;html=1;exitX=0.5;exitY=1;exitDx=0;exitDy=0;entryX=0.5;entryY=0;entryDx=0;entryDy=0;" parent="1f0OFDxYb1WzkCkjiEqP-20" source="1f0OFDxYb1WzkCkjiEqP-60" target="1f0OFDxYb1WzkCkjiEqP-51" edge="1">
          <mxGeometry relative="1" as="geometry" />
        </mxCell>
        <mxCell id="1f0OFDxYb1WzkCkjiEqP-139" value="是" style="edgeLabel;html=1;align=center;verticalAlign=middle;resizable=0;points=[];" parent="1f0OFDxYb1WzkCkjiEqP-138" vertex="1" connectable="0">
          <mxGeometry x="-0.2108" y="-3" relative="1" as="geometry">
            <mxPoint as="offset" />
          </mxGeometry>
        </mxCell>
        <mxCell id="1f0OFDxYb1WzkCkjiEqP-140" style="edgeStyle=orthogonalEdgeStyle;rounded=0;orthogonalLoop=1;jettySize=auto;html=1;exitX=1;exitY=0.5;exitDx=0;exitDy=0;entryX=0.5;entryY=1;entryDx=0;entryDy=0;" parent="1f0OFDxYb1WzkCkjiEqP-20" source="1f0OFDxYb1WzkCkjiEqP-60" target="1f0OFDxYb1WzkCkjiEqP-46" edge="1">
          <mxGeometry relative="1" as="geometry" />
        </mxCell>
        <mxCell id="1f0OFDxYb1WzkCkjiEqP-141" value="否" style="edgeLabel;html=1;align=center;verticalAlign=middle;resizable=0;points=[];" parent="1f0OFDxYb1WzkCkjiEqP-140" vertex="1" connectable="0">
          <mxGeometry x="-0.7164" y="1" relative="1" as="geometry">
            <mxPoint as="offset" />
          </mxGeometry>
        </mxCell>
        <mxCell id="1f0OFDxYb1WzkCkjiEqP-60" value="人脸大库查重是否通过" style="rhombus;whiteSpace=wrap;html=1;" parent="1f0OFDxYb1WzkCkjiEqP-20" vertex="1">
          <mxGeometry x="335" y="510" width="210" height="60" as="geometry" />
        </mxCell>
        <mxCell id="4poHRcdC_TyNuaXaLzBd-77" style="edgeStyle=orthogonalEdgeStyle;rounded=0;orthogonalLoop=1;jettySize=auto;html=1;exitX=0.5;exitY=1;exitDx=0;exitDy=0;entryX=0.5;entryY=0;entryDx=0;entryDy=0;" parent="1f0OFDxYb1WzkCkjiEqP-20" source="4poHRcdC_TyNuaXaLzBd-76" target="1f0OFDxYb1WzkCkjiEqP-60" edge="1">
          <mxGeometry relative="1" as="geometry" />
        </mxCell>
        <mxCell id="4poHRcdC_TyNuaXaLzBd-76" value="提取人脸大、小特征，小特征用于前端比对，大特征用于后端比对" style="rounded=0;whiteSpace=wrap;html=1;align=center;" parent="1f0OFDxYb1WzkCkjiEqP-20" vertex="1">
          <mxGeometry x="340" y="390" width="200" height="60" as="geometry" />
        </mxCell>
        <mxCell id="4poHRcdC_TyNuaXaLzBd-8" style="edgeStyle=orthogonalEdgeStyle;rounded=0;orthogonalLoop=1;jettySize=auto;html=1;exitX=0.5;exitY=1;exitDx=0;exitDy=0;entryX=0.5;entryY=0;entryDx=0;entryDy=0;" parent="1f0OFDxYb1WzkCkjiEqP-20" source="1f0OFDxYb1WzkCkjiEqP-26" target="4poHRcdC_TyNuaXaLzBd-76" edge="1">
          <mxGeometry relative="1" as="geometry">
            <mxPoint x="440" y="380" as="targetPoint" />
          </mxGeometry>
        </mxCell>
        <mxCell id="_u0KSfqB_Zb8n4j6yfHZ-61" value="" style="edgeStyle=orthogonalEdgeStyle;rounded=0;orthogonalLoop=1;jettySize=auto;html=1;exitX=1;exitY=0.5;exitDx=0;exitDy=0;startArrow=none;startFill=0;endArrow=classic;endFill=1;fillColor=#d5e8d4;strokeColor=#82b366;" parent="1" source="_u0KSfqB_Zb8n4j6yfHZ-131" edge="1">
          <mxGeometry x="-0.1163" y="1" relative="1" as="geometry">
            <mxPoint x="1440" y="875" as="targetPoint" />
            <Array as="points">
              <mxPoint x="1440" y="875" />
            </Array>
            <mxPoint as="offset" />
          </mxGeometry>
        </mxCell>
        <mxCell id="_u0KSfqB_Zb8n4j6yfHZ-166" value="否" style="edgeLabel;html=1;align=center;verticalAlign=middle;resizable=0;points=[];" parent="_u0KSfqB_Zb8n4j6yfHZ-61" vertex="1" connectable="0">
          <mxGeometry x="0.3055" relative="1" as="geometry">
            <mxPoint x="-11.14" y="-0.02" as="offset" />
          </mxGeometry>
        </mxCell>
        <mxCell id="_u0KSfqB_Zb8n4j6yfHZ-139" style="edgeStyle=orthogonalEdgeStyle;rounded=0;orthogonalLoop=1;jettySize=auto;html=1;exitX=0.5;exitY=1;exitDx=0;exitDy=0;startArrow=none;startFill=0;endArrow=classic;endFill=1;strokeColor=#000000;" parent="1" source="_u0KSfqB_Zb8n4j6yfHZ-55" target="_u0KSfqB_Zb8n4j6yfHZ-137" edge="1">
          <mxGeometry relative="1" as="geometry" />
        </mxCell>
        <mxCell id="_u0KSfqB_Zb8n4j6yfHZ-145" value="否" style="edgeLabel;html=1;align=center;verticalAlign=middle;resizable=0;points=[];" parent="_u0KSfqB_Zb8n4j6yfHZ-139" vertex="1" connectable="0">
          <mxGeometry x="-0.8996" relative="1" as="geometry">
            <mxPoint y="4.57" as="offset" />
          </mxGeometry>
        </mxCell>
        <mxCell id="_u0KSfqB_Zb8n4j6yfHZ-55" value="异常用户集？" style="rhombus;whiteSpace=wrap;html=1;fillColor=#d5e8d4;strokeColor=#82b366;" parent="1" vertex="1">
          <mxGeometry x="1105" y="850" width="110" height="50" as="geometry" />
        </mxCell>
        <mxCell id="_u0KSfqB_Zb8n4j6yfHZ-140" style="edgeStyle=orthogonalEdgeStyle;rounded=0;orthogonalLoop=1;jettySize=auto;html=1;exitX=0.5;exitY=1;exitDx=0;exitDy=0;startArrow=none;startFill=0;endArrow=classic;endFill=1;strokeColor=#82b366;fillColor=#d5e8d4;" parent="1" source="_u0KSfqB_Zb8n4j6yfHZ-131" edge="1">
          <mxGeometry relative="1" as="geometry">
            <mxPoint x="1160" y="930" as="targetPoint" />
            <mxPoint x="1358" y="900" as="sourcePoint" />
            <Array as="points">
              <mxPoint x="1327" y="930" />
            </Array>
          </mxGeometry>
        </mxCell>
        <mxCell id="_u0KSfqB_Zb8n4j6yfHZ-144" value="是" style="edgeLabel;html=1;align=center;verticalAlign=middle;resizable=0;points=[];" parent="_u0KSfqB_Zb8n4j6yfHZ-140" vertex="1" connectable="0">
          <mxGeometry x="-0.8166" y="-1" relative="1" as="geometry">
            <mxPoint x="1" y="-7.43" as="offset" />
          </mxGeometry>
        </mxCell>
        <mxCell id="_u0KSfqB_Zb8n4j6yfHZ-131" value="S&lt;span style=&quot;font-size: 10px&quot;&gt;&lt;sub&gt;max&lt;/sub&gt;&lt;/span&gt;&amp;gt;T1?" style="rhombus;whiteSpace=wrap;html=1;fillColor=#d5e8d4;strokeColor=#82b366;" parent="1" vertex="1">
          <mxGeometry x="1272" y="850" width="110" height="50" as="geometry" />
        </mxCell>
        <mxCell id="_u0KSfqB_Zb8n4j6yfHZ-132" value="" style="edgeStyle=orthogonalEdgeStyle;rounded=0;orthogonalLoop=1;jettySize=auto;html=1;exitX=1;exitY=0.5;exitDx=0;exitDy=0;startArrow=none;startFill=0;endArrow=classic;endFill=1;fillColor=#d5e8d4;strokeColor=#82b366;" parent="1" source="_u0KSfqB_Zb8n4j6yfHZ-55" target="_u0KSfqB_Zb8n4j6yfHZ-131" edge="1">
          <mxGeometry x="-0.1163" y="1" relative="1" as="geometry">
            <mxPoint x="1440" y="845" as="targetPoint" />
            <mxPoint x="1225" y="845.5" as="sourcePoint" />
            <Array as="points" />
            <mxPoint as="offset" />
          </mxGeometry>
        </mxCell>
        <mxCell id="_u0KSfqB_Zb8n4j6yfHZ-133" value="是" style="edgeLabel;html=1;align=center;verticalAlign=middle;resizable=0;points=[];" parent="_u0KSfqB_Zb8n4j6yfHZ-132" vertex="1" connectable="0">
          <mxGeometry x="-0.3517" y="-1" relative="1" as="geometry">
            <mxPoint x="7" y="-1" as="offset" />
          </mxGeometry>
        </mxCell>
        <mxCell id="_u0KSfqB_Zb8n4j6yfHZ-137" value="返回比对结果;" style="rounded=0;whiteSpace=wrap;html=1;fillColor=#f8cecc;strokeColor=#b85450;" parent="1" vertex="1">
          <mxGeometry x="1110" y="1043" width="100" height="50" as="geometry" />
        </mxCell>
        <mxCell id="_u0KSfqB_Zb8n4j6yfHZ-6" value="新用户注册&lt;br&gt;人脸图M传入" style="rounded=0;whiteSpace=wrap;html=1;" parent="1" vertex="1">
          <mxGeometry x="380" y="1830" width="120" height="50" as="geometry" />
        </mxCell>
        <mxCell id="_u0KSfqB_Zb8n4j6yfHZ-7" value="注册查重结束" style="rounded=1;whiteSpace=wrap;html=1;fillColor=#dae8fc;strokeColor=#6c8ebf;" parent="1" vertex="1">
          <mxGeometry x="390" y="2739" width="100" height="50" as="geometry" />
        </mxCell>
        <mxCell id="_u0KSfqB_Zb8n4j6yfHZ-50" style="edgeStyle=orthogonalEdgeStyle;rounded=0;orthogonalLoop=1;jettySize=auto;html=1;exitX=0;exitY=0.5;exitDx=0;exitDy=0;" parent="1" source="_u0KSfqB_Zb8n4j6yfHZ-9" edge="1">
          <mxGeometry y="1600" as="geometry">
            <mxPoint x="440" y="2590" as="targetPoint" />
            <Array as="points">
              <mxPoint x="180" y="2058" />
              <mxPoint x="180" y="2590" />
            </Array>
          </mxGeometry>
        </mxCell>
        <mxCell id="_u0KSfqB_Zb8n4j6yfHZ-81" value="是" style="edgeLabel;html=1;align=center;verticalAlign=middle;resizable=0;points=[];" parent="_u0KSfqB_Zb8n4j6yfHZ-50" vertex="1" connectable="0">
          <mxGeometry x="-0.9299" y="1" relative="1" as="geometry">
            <mxPoint x="-18.4" y="-1" as="offset" />
          </mxGeometry>
        </mxCell>
        <mxCell id="_u0KSfqB_Zb8n4j6yfHZ-9" value="地铁全量库&lt;br&gt;Smax &amp;lt; T0&lt;sub&gt;&amp;nbsp;&lt;/sub&gt;？" style="rhombus;whiteSpace=wrap;html=1;" parent="1" vertex="1">
          <mxGeometry x="340" y="2033" width="200" height="50" as="geometry" />
        </mxCell>
        <mxCell id="_u0KSfqB_Zb8n4j6yfHZ-11" style="edgeStyle=orthogonalEdgeStyle;rounded=0;orthogonalLoop=1;jettySize=auto;html=1;exitX=0.5;exitY=1;exitDx=0;exitDy=0;entryX=0.5;entryY=0;entryDx=0;entryDy=0;" parent="1" source="_u0KSfqB_Zb8n4j6yfHZ-12" target="_u0KSfqB_Zb8n4j6yfHZ-6" edge="1">
          <mxGeometry y="1600" as="geometry" />
        </mxCell>
        <mxCell id="_u0KSfqB_Zb8n4j6yfHZ-12" value="开始注册查重" style="rounded=1;whiteSpace=wrap;html=1;fillColor=#dae8fc;strokeColor=#6c8ebf;" parent="1" vertex="1">
          <mxGeometry x="390" y="1680" width="100" height="50" as="geometry" />
        </mxCell>
        <mxCell id="_u0KSfqB_Zb8n4j6yfHZ-13" value="" style="endArrow=none;dashed=1;html=1;fillColor=#f8cecc;strokeColor=#FF0000;" parent="1" edge="1">
          <mxGeometry y="1680" width="50" height="50" as="geometry">
            <mxPoint y="1926" as="sourcePoint" />
            <mxPoint x="880" y="1926" as="targetPoint" />
          </mxGeometry>
        </mxCell>
        <mxCell id="_u0KSfqB_Zb8n4j6yfHZ-15" value="App端" style="text;html=1;strokeColor=none;fillColor=none;align=center;verticalAlign=middle;whiteSpace=wrap;rounded=0;" parent="1" vertex="1">
          <mxGeometry x="824" y="1906" width="58" height="20" as="geometry" />
        </mxCell>
        <mxCell id="_u0KSfqB_Zb8n4j6yfHZ-16" value="人脸识别平台" style="text;html=1;strokeColor=none;fillColor=none;align=center;verticalAlign=middle;whiteSpace=wrap;rounded=0;" parent="1" vertex="1">
          <mxGeometry x="804" y="1927" width="78" height="20" as="geometry" />
        </mxCell>
        <mxCell id="_u0KSfqB_Zb8n4j6yfHZ-17" value="App端" style="text;html=1;strokeColor=none;fillColor=none;align=left;verticalAlign=middle;whiteSpace=wrap;rounded=0;" parent="1" vertex="1">
          <mxGeometry x="4" y="1906" width="58" height="20" as="geometry" />
        </mxCell>
        <mxCell id="_u0KSfqB_Zb8n4j6yfHZ-18" value="人脸识别平台" style="text;html=1;strokeColor=none;fillColor=none;align=left;verticalAlign=middle;whiteSpace=wrap;rounded=0;" parent="1" vertex="1">
          <mxGeometry x="4" y="1927" width="78" height="20" as="geometry" />
        </mxCell>
        <mxCell id="_u0KSfqB_Zb8n4j6yfHZ-19" value="" style="endArrow=none;dashed=1;html=1;fillColor=#f8cecc;strokeColor=#FF0000;" parent="1" edge="1">
          <mxGeometry y="1680" width="50" height="50" as="geometry">
            <mxPoint y="2619" as="sourcePoint" />
            <mxPoint x="880" y="2619" as="targetPoint" />
          </mxGeometry>
        </mxCell>
        <mxCell id="_u0KSfqB_Zb8n4j6yfHZ-20" value="人脸识别平台" style="text;html=1;strokeColor=none;fillColor=none;align=right;verticalAlign=middle;whiteSpace=wrap;rounded=0;" parent="1" vertex="1">
          <mxGeometry x="794" y="2599" width="88" height="20" as="geometry" />
        </mxCell>
        <mxCell id="_u0KSfqB_Zb8n4j6yfHZ-21" value="App端" style="text;html=1;strokeColor=none;fillColor=none;align=right;verticalAlign=middle;whiteSpace=wrap;rounded=0;" parent="1" vertex="1">
          <mxGeometry x="804" y="2620" width="78" height="20" as="geometry" />
        </mxCell>
        <mxCell id="_u0KSfqB_Zb8n4j6yfHZ-22" value="人脸识别平台" style="text;html=1;strokeColor=none;fillColor=none;align=left;verticalAlign=middle;whiteSpace=wrap;rounded=0;" parent="1" vertex="1">
          <mxGeometry x="4" y="2599" width="80" height="20" as="geometry" />
        </mxCell>
        <mxCell id="_u0KSfqB_Zb8n4j6yfHZ-23" value="App端" style="text;html=1;strokeColor=none;fillColor=none;align=left;verticalAlign=middle;whiteSpace=wrap;rounded=0;" parent="1" vertex="1">
          <mxGeometry x="4" y="2620" width="78" height="20" as="geometry" />
        </mxCell>
        <mxCell id="_u0KSfqB_Zb8n4j6yfHZ-24" value="是" style="edgeStyle=orthogonalEdgeStyle;rounded=0;orthogonalLoop=1;jettySize=auto;html=1;entryX=0.5;entryY=0;entryDx=0;entryDy=0;" parent="1" target="_u0KSfqB_Zb8n4j6yfHZ-9" edge="1">
          <mxGeometry y="1680" as="geometry">
            <mxPoint x="440" y="1880" as="sourcePoint" />
            <Array as="points" />
            <mxPoint y="-2" as="offset" />
            <mxPoint x="440" y="1855" as="targetPoint" />
          </mxGeometry>
        </mxCell>
        <mxCell id="_u0KSfqB_Zb8n4j6yfHZ-25" style="edgeStyle=orthogonalEdgeStyle;rounded=0;orthogonalLoop=1;jettySize=auto;html=1;entryX=1;entryY=0.5;entryDx=0;entryDy=0;exitX=0.5;exitY=0;exitDx=0;exitDy=0;opacity=50;dashed=1;" parent="1" source="_u0KSfqB_Zb8n4j6yfHZ-26" target="_u0KSfqB_Zb8n4j6yfHZ-12" edge="1">
          <mxGeometry y="1680" as="geometry" />
        </mxCell>
        <mxCell id="_u0KSfqB_Zb8n4j6yfHZ-26" value="引导用户M重拍人脸" style="rounded=0;whiteSpace=wrap;html=1;fillColor=#f5f5f5;strokeColor=#666666;gradientColor=#b3b3b3;" parent="1" vertex="1">
          <mxGeometry x="574" y="1830" width="110" height="50" as="geometry" />
        </mxCell>
        <mxCell id="_u0KSfqB_Zb8n4j6yfHZ-37" value="&lt;font style=&quot;font-size: 14px ; line-height: 160%&quot;&gt;备注说明：&lt;br&gt;1. T0&lt;/font&gt;&lt;font style=&quot;line-height: 160%&quot;&gt;&lt;span style=&quot;font-size: 14px&quot;&gt;表示默认相似度阈值，T1&lt;/span&gt;&lt;span style=&quot;font-size: 14px&quot;&gt;表示异常用户集的相似度，且T0&lt;/span&gt;&lt;span style=&quot;font-size: 14px&quot;&gt;&amp;lt;T1&lt;/span&gt;&lt;span style=&quot;font-size: 14px&quot;&gt;；&lt;/span&gt;&lt;br&gt;&lt;span style=&quot;font-size: 14px&quot;&gt;2. S&lt;/span&gt;&lt;sub style=&quot;font-size: 14px&quot;&gt;max&lt;/sub&gt;&lt;span style=&quot;font-size: 14px&quot;&gt;是指用户M的注册人脸图与人脸大库中逐一比对得到的最大相似度，即Top1的相似度；&lt;/span&gt;&lt;br&gt;&lt;span style=&quot;font-size: 14px&quot;&gt;3. TopN是指用户M的注册人脸图在人脸大库中相似度最高的前N个用户，N可以根据实际情况调整；&lt;/span&gt;&lt;br&gt;&lt;span style=&quot;font-size: 14px&quot;&gt;4. 若用户M在多次注册过程中S&lt;/span&gt;&lt;sub style=&quot;font-size: 14px&quot;&gt;max&lt;/sub&gt;&lt;span style=&quot;font-size: 14px&quot;&gt;都大于T1，建议引导客户不使用刷脸过闸，改用其他过闸方式，如二维码；&lt;/span&gt;&lt;br&gt;&lt;/font&gt;" style="text;html=1;strokeColor=none;fillColor=none;align=left;verticalAlign=top;whiteSpace=wrap;rounded=0;" parent="1" vertex="1">
          <mxGeometry y="2830" width="1000" height="120" as="geometry" />
        </mxCell>
        <mxCell id="_u0KSfqB_Zb8n4j6yfHZ-38" value="&lt;span style=&quot;font-size: 32px&quot;&gt;人脸注册查重策略&lt;/span&gt;" style="text;html=1;strokeColor=none;fillColor=none;align=center;verticalAlign=middle;whiteSpace=wrap;rounded=0;" parent="1" vertex="1">
          <mxGeometry x="288.5" y="1600" width="303" height="20" as="geometry" />
        </mxCell>
        <mxCell id="_u0KSfqB_Zb8n4j6yfHZ-41" style="edgeStyle=orthogonalEdgeStyle;rounded=0;orthogonalLoop=1;jettySize=auto;html=1;entryX=0.5;entryY=1;entryDx=0;entryDy=0;" parent="1" source="_u0KSfqB_Zb8n4j6yfHZ-43" target="_u0KSfqB_Zb8n4j6yfHZ-26" edge="1">
          <mxGeometry y="1600" as="geometry" />
        </mxCell>
        <mxCell id="_u0KSfqB_Zb8n4j6yfHZ-42" value="否" style="edgeLabel;html=1;align=center;verticalAlign=middle;resizable=0;points=[];" parent="_u0KSfqB_Zb8n4j6yfHZ-41" vertex="1" connectable="0">
          <mxGeometry x="-0.7736" y="-1" relative="1" as="geometry">
            <mxPoint x="7.14" y="-1" as="offset" />
          </mxGeometry>
        </mxCell>
        <mxCell id="_u0KSfqB_Zb8n4j6yfHZ-43" value="地铁全量库&lt;br&gt;Smax &amp;lt; T1&lt;sub&gt;&amp;nbsp;&lt;/sub&gt;？" style="rhombus;whiteSpace=wrap;html=1;" parent="1" vertex="1">
          <mxGeometry x="340" y="2237" width="200" height="50" as="geometry" />
        </mxCell>
        <mxCell id="_u0KSfqB_Zb8n4j6yfHZ-44" style="edgeStyle=orthogonalEdgeStyle;rounded=0;orthogonalLoop=1;jettySize=auto;html=1;exitX=0.5;exitY=1;exitDx=0;exitDy=0;" parent="1" source="_u0KSfqB_Zb8n4j6yfHZ-9" target="_u0KSfqB_Zb8n4j6yfHZ-43" edge="1">
          <mxGeometry y="1600" as="geometry" />
        </mxCell>
        <mxCell id="_u0KSfqB_Zb8n4j6yfHZ-45" value="否" style="edgeLabel;html=1;align=center;verticalAlign=middle;resizable=0;points=[];" parent="_u0KSfqB_Zb8n4j6yfHZ-44" vertex="1" connectable="0">
          <mxGeometry x="-0.1622" y="-1" relative="1" as="geometry">
            <mxPoint x="1" y="-5.57" as="offset" />
          </mxGeometry>
        </mxCell>
        <mxCell id="_u0KSfqB_Zb8n4j6yfHZ-49" style="edgeStyle=orthogonalEdgeStyle;rounded=0;orthogonalLoop=1;jettySize=auto;html=1;exitX=0.5;exitY=1;exitDx=0;exitDy=0;" parent="1" source="_u0KSfqB_Zb8n4j6yfHZ-46" target="_u0KSfqB_Zb8n4j6yfHZ-7" edge="1">
          <mxGeometry y="1600" as="geometry">
            <mxPoint x="440" y="2640" as="targetPoint" />
          </mxGeometry>
        </mxCell>
        <mxCell id="_u0KSfqB_Zb8n4j6yfHZ-48" style="edgeStyle=orthogonalEdgeStyle;rounded=0;orthogonalLoop=1;jettySize=auto;html=1;exitX=0.5;exitY=1;exitDx=0;exitDy=0;" parent="1" source="_u0KSfqB_Zb8n4j6yfHZ-43" target="_u0KSfqB_Zb8n4j6yfHZ-46" edge="1">
          <mxGeometry y="1600" as="geometry" />
        </mxCell>
        <mxCell id="_u0KSfqB_Zb8n4j6yfHZ-171" value="是" style="edgeLabel;html=1;align=center;verticalAlign=middle;resizable=0;points=[];fontSize=11;" parent="_u0KSfqB_Zb8n4j6yfHZ-48" vertex="1" connectable="0">
          <mxGeometry relative="1" as="geometry">
            <mxPoint x="1" y="-35" as="offset" />
          </mxGeometry>
        </mxCell>
        <mxCell id="_u0KSfqB_Zb8n4j6yfHZ-46" value="将该用户M以及TopN的用户&lt;br&gt;一同放入异常用户集；" style="rounded=0;whiteSpace=wrap;html=1;align=center;" parent="1" vertex="1">
          <mxGeometry x="340" y="2435" width="200" height="60" as="geometry" />
        </mxCell>
        <mxCell id="_u0KSfqB_Zb8n4j6yfHZ-172" value="当用户重拍的人脸图M*在&lt;br&gt;人脸大库中查重Top1的相似度Smax&lt;span style=&quot;font-size: 12px ; text-align: center&quot;&gt;&amp;lt; T&lt;/span&gt;&lt;span style=&quot;text-align: center ; font-size: 9.16667px&quot;&gt;1&lt;/span&gt;时&lt;br&gt;终止注册循环；" style="text;html=1;strokeColor=none;fillColor=none;align=left;verticalAlign=middle;whiteSpace=wrap;rounded=0;fontSize=11;" parent="1" vertex="1">
          <mxGeometry x="630" y="1720" width="230" height="30" as="geometry" />
        </mxCell>
        <mxCell id="_u0KSfqB_Zb8n4j6yfHZ-173" value="注册3次不通过时&lt;br&gt;引导使用二维码" style="ellipse;shape=cloud;whiteSpace=wrap;html=1;fontSize=11;align=center;fillColor=#e1d5e7;strokeColor=#9673a6;" parent="1" vertex="1">
          <mxGeometry x="746" y="1645" width="136" height="75" as="geometry" />
        </mxCell>
        <mxCell id="_u0KSfqB_Zb8n4j6yfHZ-84" value="用户A扣款记录&lt;br&gt;compare_request_id" style="rounded=0;whiteSpace=wrap;html=1;" parent="1" vertex="1">
          <mxGeometry x="1380" y="1830" width="120" height="50" as="geometry" />
        </mxCell>
        <mxCell id="_u0KSfqB_Zb8n4j6yfHZ-85" value="误刷客诉结束" style="rounded=1;whiteSpace=wrap;html=1;fillColor=#dae8fc;strokeColor=#6c8ebf;" parent="1" vertex="1">
          <mxGeometry x="1390" y="2739" width="100" height="50" as="geometry" />
        </mxCell>
        <mxCell id="_u0KSfqB_Zb8n4j6yfHZ-178" style="edgeStyle=orthogonalEdgeStyle;rounded=0;orthogonalLoop=1;jettySize=auto;html=1;exitX=0;exitY=0.5;exitDx=0;exitDy=0;startArrow=none;startFill=0;endArrow=classic;endFill=1;strokeColor=#000000;fontSize=11;" parent="1" source="_u0KSfqB_Zb8n4j6yfHZ-88" edge="1">
          <mxGeometry x="-1000" y="1600" as="geometry">
            <mxPoint x="1440" y="2580" as="targetPoint" />
            <Array as="points">
              <mxPoint x="1270" y="2058" />
              <mxPoint x="1270" y="2580" />
              <mxPoint x="1440" y="2580" />
            </Array>
          </mxGeometry>
        </mxCell>
        <mxCell id="_u0KSfqB_Zb8n4j6yfHZ-179" value="否" style="edgeLabel;html=1;align=center;verticalAlign=middle;resizable=0;points=[];fontSize=11;" parent="_u0KSfqB_Zb8n4j6yfHZ-178" vertex="1" connectable="0">
          <mxGeometry x="-0.901" relative="1" as="geometry">
            <mxPoint as="offset" />
          </mxGeometry>
        </mxCell>
        <mxCell id="_u0KSfqB_Zb8n4j6yfHZ-88" value="客服介入&lt;br&gt;确认是否误刷？" style="rhombus;whiteSpace=wrap;html=1;" parent="1" vertex="1">
          <mxGeometry x="1340" y="2033" width="200" height="50" as="geometry" />
        </mxCell>
        <mxCell id="_u0KSfqB_Zb8n4j6yfHZ-89" style="edgeStyle=orthogonalEdgeStyle;rounded=0;orthogonalLoop=1;jettySize=auto;html=1;exitX=0.5;exitY=1;exitDx=0;exitDy=0;entryX=0.5;entryY=0;entryDx=0;entryDy=0;" parent="1" source="_u0KSfqB_Zb8n4j6yfHZ-90" target="_u0KSfqB_Zb8n4j6yfHZ-84" edge="1">
          <mxGeometry x="1000" y="1600" as="geometry" />
        </mxCell>
        <mxCell id="_u0KSfqB_Zb8n4j6yfHZ-90" value="开始误刷客诉" style="rounded=1;whiteSpace=wrap;html=1;fillColor=#dae8fc;strokeColor=#6c8ebf;" parent="1" vertex="1">
          <mxGeometry x="1390" y="1680" width="100" height="50" as="geometry" />
        </mxCell>
        <mxCell id="_u0KSfqB_Zb8n4j6yfHZ-91" value="" style="endArrow=none;dashed=1;html=1;fillColor=#f8cecc;strokeColor=#FF0000;" parent="1" edge="1">
          <mxGeometry x="1000" y="1680" width="50" height="50" as="geometry">
            <mxPoint x="1000" y="1926" as="sourcePoint" />
            <mxPoint x="1880" y="1926" as="targetPoint" />
          </mxGeometry>
        </mxCell>
        <mxCell id="_u0KSfqB_Zb8n4j6yfHZ-92" value="App端" style="text;html=1;strokeColor=none;fillColor=none;align=center;verticalAlign=middle;whiteSpace=wrap;rounded=0;" parent="1" vertex="1">
          <mxGeometry x="1824" y="1906" width="58" height="20" as="geometry" />
        </mxCell>
        <mxCell id="_u0KSfqB_Zb8n4j6yfHZ-93" value="人脸识别平台" style="text;html=1;strokeColor=none;fillColor=none;align=center;verticalAlign=middle;whiteSpace=wrap;rounded=0;" parent="1" vertex="1">
          <mxGeometry x="1804" y="1927" width="78" height="20" as="geometry" />
        </mxCell>
        <mxCell id="_u0KSfqB_Zb8n4j6yfHZ-94" value="App端" style="text;html=1;strokeColor=none;fillColor=none;align=left;verticalAlign=middle;whiteSpace=wrap;rounded=0;" parent="1" vertex="1">
          <mxGeometry x="1004" y="1906" width="58" height="20" as="geometry" />
        </mxCell>
        <mxCell id="_u0KSfqB_Zb8n4j6yfHZ-95" value="人脸识别平台" style="text;html=1;strokeColor=none;fillColor=none;align=left;verticalAlign=middle;whiteSpace=wrap;rounded=0;" parent="1" vertex="1">
          <mxGeometry x="1004" y="1927" width="78" height="20" as="geometry" />
        </mxCell>
        <mxCell id="_u0KSfqB_Zb8n4j6yfHZ-96" value="" style="endArrow=none;dashed=1;html=1;fillColor=#f8cecc;strokeColor=#FF0000;" parent="1" edge="1">
          <mxGeometry x="1000" y="1680" width="50" height="50" as="geometry">
            <mxPoint x="1000" y="2619" as="sourcePoint" />
            <mxPoint x="1880" y="2619" as="targetPoint" />
          </mxGeometry>
        </mxCell>
        <mxCell id="_u0KSfqB_Zb8n4j6yfHZ-97" value="人脸识别平台" style="text;html=1;strokeColor=none;fillColor=none;align=right;verticalAlign=middle;whiteSpace=wrap;rounded=0;" parent="1" vertex="1">
          <mxGeometry x="1794" y="2599" width="88" height="20" as="geometry" />
        </mxCell>
        <mxCell id="_u0KSfqB_Zb8n4j6yfHZ-98" value="App端" style="text;html=1;strokeColor=none;fillColor=none;align=right;verticalAlign=middle;whiteSpace=wrap;rounded=0;" parent="1" vertex="1">
          <mxGeometry x="1804" y="2620" width="78" height="20" as="geometry" />
        </mxCell>
        <mxCell id="_u0KSfqB_Zb8n4j6yfHZ-99" value="人脸识别平台" style="text;html=1;strokeColor=none;fillColor=none;align=left;verticalAlign=middle;whiteSpace=wrap;rounded=0;" parent="1" vertex="1">
          <mxGeometry x="1004" y="2599" width="80" height="20" as="geometry" />
        </mxCell>
        <mxCell id="_u0KSfqB_Zb8n4j6yfHZ-100" value="App端" style="text;html=1;strokeColor=none;fillColor=none;align=left;verticalAlign=middle;whiteSpace=wrap;rounded=0;" parent="1" vertex="1">
          <mxGeometry x="1004" y="2620" width="78" height="20" as="geometry" />
        </mxCell>
        <mxCell id="_u0KSfqB_Zb8n4j6yfHZ-101" value="是" style="edgeStyle=orthogonalEdgeStyle;rounded=0;orthogonalLoop=1;jettySize=auto;html=1;entryX=0.5;entryY=0;entryDx=0;entryDy=0;" parent="1" target="_u0KSfqB_Zb8n4j6yfHZ-88" edge="1">
          <mxGeometry x="-4000" y="1600" as="geometry">
            <mxPoint x="1440" y="1880" as="sourcePoint" />
            <Array as="points" />
            <mxPoint y="-6" as="offset" />
            <mxPoint x="1440" y="1855" as="targetPoint" />
          </mxGeometry>
        </mxCell>
        <mxCell id="_u0KSfqB_Zb8n4j6yfHZ-102" style="edgeStyle=orthogonalEdgeStyle;rounded=0;orthogonalLoop=1;jettySize=auto;html=1;entryX=1;entryY=0.5;entryDx=0;entryDy=0;exitX=0.5;exitY=0;exitDx=0;exitDy=0;opacity=50;dashed=1;" parent="1" source="_u0KSfqB_Zb8n4j6yfHZ-103" target="_u0KSfqB_Zb8n4j6yfHZ-90" edge="1">
          <mxGeometry x="1000" y="1680" as="geometry" />
        </mxCell>
        <mxCell id="_u0KSfqB_Zb8n4j6yfHZ-103" value="引导用户A更新底库" style="rounded=0;whiteSpace=wrap;html=1;fillColor=#f5f5f5;strokeColor=#666666;gradientColor=#b3b3b3;" parent="1" vertex="1">
          <mxGeometry x="1570" y="1830" width="107" height="50" as="geometry" />
        </mxCell>
        <mxCell id="_u0KSfqB_Zb8n4j6yfHZ-107" value="&lt;font style=&quot;font-size: 14px ; line-height: 160%&quot;&gt;备注说明：&lt;br&gt;1. 本客诉场景为，人员B误识别为了用户A，扣了用户A的钱，因而用户A进行客诉；&lt;br&gt;2. 根据扣费记录，查询到对应的人脸比识别流水号compare_request_id，客服介入做主观判断；&lt;br&gt;3. 若确认为误刷，则进一步判断用户A的底库照与人员B的抓拍照的相似度，将二者的相似度控制在T1以下；&lt;br&gt;4. 若用户A多次更新底库过程中S(底库A*&amp;amp;抓拍B)都大于T1，建议引导用户A停用刷脸过闸，改用其他过闸方式，如二维码；&lt;br&gt;&lt;/font&gt;" style="text;html=1;strokeColor=none;fillColor=none;align=left;verticalAlign=top;whiteSpace=wrap;rounded=0;" parent="1" vertex="1">
          <mxGeometry x="1000" y="2830" width="1000" height="120" as="geometry" />
        </mxCell>
        <mxCell id="_u0KSfqB_Zb8n4j6yfHZ-108" value="&lt;span style=&quot;font-size: 32px&quot;&gt;误刷客诉处理策略&lt;/span&gt;" style="text;html=1;strokeColor=none;fillColor=none;align=center;verticalAlign=middle;whiteSpace=wrap;rounded=0;" parent="1" vertex="1">
          <mxGeometry x="1288.5" y="1600" width="303" height="20" as="geometry" />
        </mxCell>
        <mxCell id="_u0KSfqB_Zb8n4j6yfHZ-109" style="edgeStyle=orthogonalEdgeStyle;rounded=0;orthogonalLoop=1;jettySize=auto;html=1;entryX=0.5;entryY=1;entryDx=0;entryDy=0;exitX=1;exitY=0.5;exitDx=0;exitDy=0;" parent="1" source="_u0KSfqB_Zb8n4j6yfHZ-175" target="_u0KSfqB_Zb8n4j6yfHZ-103" edge="1">
          <mxGeometry x="1000" y="1600" as="geometry">
            <Array as="points">
              <mxPoint x="1624" y="2262" />
            </Array>
          </mxGeometry>
        </mxCell>
        <mxCell id="_u0KSfqB_Zb8n4j6yfHZ-110" value="否" style="edgeLabel;html=1;align=center;verticalAlign=middle;resizable=0;points=[];" parent="_u0KSfqB_Zb8n4j6yfHZ-109" vertex="1" connectable="0">
          <mxGeometry x="-0.7736" y="-1" relative="1" as="geometry">
            <mxPoint x="-22.939999999999998" y="-1" as="offset" />
          </mxGeometry>
        </mxCell>
        <mxCell id="_u0KSfqB_Zb8n4j6yfHZ-130" style="edgeStyle=orthogonalEdgeStyle;rounded=0;orthogonalLoop=1;jettySize=auto;html=1;exitX=0.5;exitY=1;exitDx=0;exitDy=0;entryX=0.5;entryY=0;entryDx=0;entryDy=0;startArrow=none;startFill=0;endArrow=classic;endFill=1;" parent="1" source="_u0KSfqB_Zb8n4j6yfHZ-123" target="_u0KSfqB_Zb8n4j6yfHZ-85" edge="1">
          <mxGeometry x="-1000" y="1600" as="geometry">
            <mxPoint x="1440" y="2643" as="targetPoint" />
          </mxGeometry>
        </mxCell>
        <mxCell id="_u0KSfqB_Zb8n4j6yfHZ-123" value="将该用户A以及&lt;br&gt;B人脸抓拍照的TopN用户&lt;br&gt;一同放入异常用户集；" style="rounded=0;whiteSpace=wrap;html=1;align=center;" parent="1" vertex="1">
          <mxGeometry x="1360" y="2440" width="160" height="50" as="geometry" />
        </mxCell>
        <mxCell id="_u0KSfqB_Zb8n4j6yfHZ-176" style="edgeStyle=orthogonalEdgeStyle;rounded=0;orthogonalLoop=1;jettySize=auto;html=1;exitX=0.5;exitY=1;exitDx=0;exitDy=0;startArrow=none;startFill=0;endArrow=classic;endFill=1;strokeColor=#000000;fontSize=11;" parent="1" source="_u0KSfqB_Zb8n4j6yfHZ-175" target="_u0KSfqB_Zb8n4j6yfHZ-123" edge="1">
          <mxGeometry x="-1000" y="1600" as="geometry" />
        </mxCell>
        <mxCell id="_u0KSfqB_Zb8n4j6yfHZ-177" value="是" style="edgeLabel;html=1;align=center;verticalAlign=middle;resizable=0;points=[];fontSize=11;" parent="_u0KSfqB_Zb8n4j6yfHZ-176" vertex="1" connectable="0">
          <mxGeometry x="-0.4424" relative="1" as="geometry">
            <mxPoint y="20" as="offset" />
          </mxGeometry>
        </mxCell>
        <mxCell id="_u0KSfqB_Zb8n4j6yfHZ-175" value="S(A底库&amp;amp;B抓拍)&amp;lt; T1&lt;sub&gt;&amp;nbsp;&lt;/sub&gt;？" style="rhombus;whiteSpace=wrap;html=1;" parent="1" vertex="1">
          <mxGeometry x="1340" y="2237" width="200" height="50" as="geometry" />
        </mxCell>
        <mxCell id="_u0KSfqB_Zb8n4j6yfHZ-86" style="edgeStyle=orthogonalEdgeStyle;rounded=0;orthogonalLoop=1;jettySize=auto;html=1;exitX=0.5;exitY=1;exitDx=0;exitDy=0;entryX=0.5;entryY=0;entryDx=0;entryDy=0;" parent="1" source="_u0KSfqB_Zb8n4j6yfHZ-88" target="_u0KSfqB_Zb8n4j6yfHZ-175" edge="1">
          <mxGeometry x="1000" y="1600" as="geometry">
            <mxPoint x="1440" y="2240" as="targetPoint" />
            <Array as="points" />
          </mxGeometry>
        </mxCell>
        <mxCell id="_u0KSfqB_Zb8n4j6yfHZ-87" value="是" style="edgeLabel;html=1;align=center;verticalAlign=middle;resizable=0;points=[];" parent="_u0KSfqB_Zb8n4j6yfHZ-86" vertex="1" connectable="0">
          <mxGeometry x="-0.9299" y="1" relative="1" as="geometry">
            <mxPoint x="-1" y="74" as="offset" />
          </mxGeometry>
        </mxCell>
        <mxCell id="_u0KSfqB_Zb8n4j6yfHZ-180" value="当用户更新的人脸图A*与&lt;br&gt;人脸抓拍图B的相似度S(A*&amp;amp;B)&lt;span style=&quot;font-size: 12px ; text-align: center&quot;&gt;&amp;lt; T&lt;/span&gt;&lt;span style=&quot;text-align: center ; font-size: 9.16667px&quot;&gt;1&lt;/span&gt;时&lt;br&gt;终止更新循环；" style="text;html=1;strokeColor=none;fillColor=none;align=left;verticalAlign=middle;whiteSpace=wrap;rounded=0;fontSize=11;" parent="1" vertex="1">
          <mxGeometry x="1640" y="1720" width="200" height="30" as="geometry" />
        </mxCell>
        <mxCell id="_u0KSfqB_Zb8n4j6yfHZ-181" value="更新3次不通过时&lt;br&gt;引导使用二维码" style="ellipse;shape=cloud;whiteSpace=wrap;html=1;fontSize=11;align=center;fillColor=#e1d5e7;strokeColor=#9673a6;" parent="1" vertex="1">
          <mxGeometry x="1746" y="1645" width="136" height="75" as="geometry" />
        </mxCell>
        <mxCell id="SGIreacJ4iyyP0TTXn9Y-36" value="&lt;span style=&quot;font-size: 32px&quot;&gt;常旅客库更新策略&lt;/span&gt;" style="text;html=1;strokeColor=none;fillColor=none;align=center;verticalAlign=middle;whiteSpace=wrap;rounded=0;" parent="1" vertex="1">
          <mxGeometry x="2302.5" y="1600" width="275" height="20" as="geometry" />
        </mxCell>
        <mxCell id="QFfBQqacpw4Q1S9WYrsz-23" value="否" style="edgeStyle=orthogonalEdgeStyle;rounded=0;orthogonalLoop=1;jettySize=auto;html=1;exitX=0;exitY=0.5;exitDx=0;exitDy=0;entryX=1;entryY=0.5;entryDx=0;entryDy=0;" edge="1" parent="1" source="SGIreacJ4iyyP0TTXn9Y-54" target="SGIreacJ4iyyP0TTXn9Y-88">
          <mxGeometry relative="1" as="geometry" />
        </mxCell>
        <mxCell id="SGIreacJ4iyyP0TTXn9Y-54" value="进站/出站&lt;br&gt;人脸比对成功？" style="rhombus;whiteSpace=wrap;html=1;flipV=1;" parent="1" vertex="1">
          <mxGeometry x="2365" y="1808" width="150" height="50" as="geometry" />
        </mxCell>
        <mxCell id="SGIreacJ4iyyP0TTXn9Y-139" style="edgeStyle=orthogonalEdgeStyle;rounded=0;orthogonalLoop=1;jettySize=auto;html=1;exitX=1;exitY=0.5;exitDx=0;exitDy=0;" parent="1" source="SGIreacJ4iyyP0TTXn9Y-58" edge="1">
          <mxGeometry x="-1000" y="1600" as="geometry">
            <mxPoint x="2660" y="2480" as="targetPoint" />
            <Array as="points">
              <mxPoint x="2780" y="2177" />
              <mxPoint x="2780" y="2480" />
            </Array>
          </mxGeometry>
        </mxCell>
        <mxCell id="SGIreacJ4iyyP0TTXn9Y-145" value="否" style="edgeLabel;html=1;align=center;verticalAlign=middle;resizable=0;points=[];" parent="SGIreacJ4iyyP0TTXn9Y-139" vertex="1" connectable="0">
          <mxGeometry x="-0.5426" y="-2" relative="1" as="geometry">
            <mxPoint x="1.9399999999999995" y="11.879999999999999" as="offset" />
          </mxGeometry>
        </mxCell>
        <mxCell id="SGIreacJ4iyyP0TTXn9Y-58" value="站点/线路常旅客库&lt;br&gt;数量是否达到上限？" style="rhombus;whiteSpace=wrap;html=1;flipV=1;" parent="1" vertex="1">
          <mxGeometry x="2560" y="2152" width="200" height="50" as="geometry" />
        </mxCell>
        <mxCell id="SGIreacJ4iyyP0TTXn9Y-61" value="结束" style="rounded=1;whiteSpace=wrap;html=1;fillColor=#dae8fc;strokeColor=#6c8ebf;flipV=1;" parent="1" vertex="1">
          <mxGeometry x="2390" y="2739" width="100" height="50" as="geometry" />
        </mxCell>
        <mxCell id="SGIreacJ4iyyP0TTXn9Y-63" style="edgeStyle=orthogonalEdgeStyle;rounded=0;orthogonalLoop=1;jettySize=auto;html=1;exitX=0.5;exitY=1;exitDx=0;exitDy=0;entryX=0.5;entryY=0;entryDx=0;entryDy=0;" parent="1" source="SGIreacJ4iyyP0TTXn9Y-62" target="SGIreacJ4iyyP0TTXn9Y-54" edge="1">
          <mxGeometry x="-1000" y="1600" as="geometry" />
        </mxCell>
        <mxCell id="SGIreacJ4iyyP0TTXn9Y-62" value="开始" style="rounded=1;whiteSpace=wrap;html=1;fillColor=#dae8fc;strokeColor=#6c8ebf;flipV=1;" parent="1" vertex="1">
          <mxGeometry x="2390" y="1680" width="100" height="50" as="geometry" />
        </mxCell>
        <mxCell id="SGIreacJ4iyyP0TTXn9Y-65" value="根据时间戳和频次信息，&lt;br&gt;删除最不活跃的记录；" style="rounded=0;whiteSpace=wrap;html=1;flipV=1;" parent="1" vertex="1">
          <mxGeometry x="2585" y="2347" width="150" height="50" as="geometry" />
        </mxCell>
        <mxCell id="SGIreacJ4iyyP0TTXn9Y-130" style="edgeStyle=orthogonalEdgeStyle;rounded=0;orthogonalLoop=1;jettySize=auto;html=1;exitX=0.5;exitY=1;exitDx=0;exitDy=0;" parent="1" source="SGIreacJ4iyyP0TTXn9Y-58" target="SGIreacJ4iyyP0TTXn9Y-65" edge="1">
          <mxGeometry x="-1000" y="1600" as="geometry" />
        </mxCell>
        <mxCell id="SGIreacJ4iyyP0TTXn9Y-144" value="是" style="edgeLabel;html=1;align=center;verticalAlign=middle;resizable=0;points=[];" parent="SGIreacJ4iyyP0TTXn9Y-130" vertex="1" connectable="0">
          <mxGeometry x="-0.1262" relative="1" as="geometry">
            <mxPoint y="4.47" as="offset" />
          </mxGeometry>
        </mxCell>
        <mxCell id="4poHRcdC_TyNuaXaLzBd-1" style="edgeStyle=orthogonalEdgeStyle;rounded=0;orthogonalLoop=1;jettySize=auto;html=1;exitX=0.5;exitY=1;exitDx=0;exitDy=0;entryX=0.5;entryY=0;entryDx=0;entryDy=0;" parent="1" source="SGIreacJ4iyyP0TTXn9Y-72" target="SGIreacJ4iyyP0TTXn9Y-61" edge="1">
          <mxGeometry relative="1" as="geometry">
            <Array as="points">
              <mxPoint x="2660" y="2650" />
              <mxPoint x="2440" y="2650" />
            </Array>
          </mxGeometry>
        </mxCell>
        <mxCell id="SGIreacJ4iyyP0TTXn9Y-72" value="将该用户添加到&lt;br&gt;对应站点/线路常旅客库；" style="rounded=0;whiteSpace=wrap;html=1;flipV=1;" parent="1" vertex="1">
          <mxGeometry x="2585" y="2543" width="150" height="50" as="geometry" />
        </mxCell>
        <mxCell id="SGIreacJ4iyyP0TTXn9Y-73" style="edgeStyle=orthogonalEdgeStyle;rounded=0;orthogonalLoop=1;jettySize=auto;html=1;exitX=0.5;exitY=1;exitDx=0;exitDy=0;" parent="1" source="SGIreacJ4iyyP0TTXn9Y-65" target="SGIreacJ4iyyP0TTXn9Y-72" edge="1">
          <mxGeometry x="-1000" y="1600" as="geometry">
            <mxPoint x="2440" y="2537" as="sourcePoint" />
            <mxPoint x="2440" y="2739" as="targetPoint" />
          </mxGeometry>
        </mxCell>
        <mxCell id="SGIreacJ4iyyP0TTXn9Y-121" style="edgeStyle=orthogonalEdgeStyle;rounded=0;orthogonalLoop=1;jettySize=auto;html=1;exitX=0.5;exitY=1;exitDx=0;exitDy=0;" parent="1" source="SGIreacJ4iyyP0TTXn9Y-82" target="SGIreacJ4iyyP0TTXn9Y-61" edge="1">
          <mxGeometry x="-1000" y="1600" as="geometry" />
        </mxCell>
        <mxCell id="SGIreacJ4iyyP0TTXn9Y-82" value="更新对应站点/线路常旅客库&lt;br&gt;的时间戳和频次信息；" style="rounded=0;whiteSpace=wrap;html=1;flipV=1;" parent="1" vertex="1">
          <mxGeometry x="2365" y="2347" width="150" height="50" as="geometry" />
        </mxCell>
        <mxCell id="QFfBQqacpw4Q1S9WYrsz-24" style="edgeStyle=orthogonalEdgeStyle;rounded=0;orthogonalLoop=1;jettySize=auto;html=1;shadow=1;" edge="1" parent="1" source="SGIreacJ4iyyP0TTXn9Y-88">
          <mxGeometry relative="1" as="geometry">
            <mxPoint x="2440" y="2740" as="targetPoint" />
            <Array as="points">
              <mxPoint x="2230" y="2600" />
              <mxPoint x="2440" y="2600" />
            </Array>
          </mxGeometry>
        </mxCell>
        <mxCell id="SGIreacJ4iyyP0TTXn9Y-88" value="不用更新" style="rounded=0;whiteSpace=wrap;html=1;fillColor=#f5f5f5;strokeColor=#666666;gradientColor=#b3b3b3;" parent="1" vertex="1">
          <mxGeometry x="2180" y="1808" width="100" height="52" as="geometry" />
        </mxCell>
        <mxCell id="SGIreacJ4iyyP0TTXn9Y-128" style="edgeStyle=orthogonalEdgeStyle;rounded=0;orthogonalLoop=1;jettySize=auto;html=1;exitX=0.5;exitY=1;exitDx=0;exitDy=0;" parent="1" source="SGIreacJ4iyyP0TTXn9Y-57" target="SGIreacJ4iyyP0TTXn9Y-82" edge="1">
          <mxGeometry x="-1000" y="1600" as="geometry" />
        </mxCell>
        <mxCell id="SGIreacJ4iyyP0TTXn9Y-143" value="是" style="edgeLabel;html=1;align=center;verticalAlign=middle;resizable=0;points=[];" parent="SGIreacJ4iyyP0TTXn9Y-128" vertex="1" connectable="0">
          <mxGeometry x="0.4521" y="-2" relative="1" as="geometry">
            <mxPoint x="2" y="16.939999999999998" as="offset" />
          </mxGeometry>
        </mxCell>
        <mxCell id="SGIreacJ4iyyP0TTXn9Y-129" style="edgeStyle=orthogonalEdgeStyle;rounded=0;orthogonalLoop=1;jettySize=auto;html=1;exitX=1;exitY=0.5;exitDx=0;exitDy=0;" parent="1" source="SGIreacJ4iyyP0TTXn9Y-57" target="SGIreacJ4iyyP0TTXn9Y-58" edge="1">
          <mxGeometry x="-1000" y="1600" as="geometry" />
        </mxCell>
        <mxCell id="SGIreacJ4iyyP0TTXn9Y-147" value="否" style="edgeLabel;html=1;align=center;verticalAlign=middle;resizable=0;points=[];" parent="SGIreacJ4iyyP0TTXn9Y-129" vertex="1" connectable="0">
          <mxGeometry x="-0.6063" y="1" relative="1" as="geometry">
            <mxPoint x="-12.14" y="0.99" as="offset" />
          </mxGeometry>
        </mxCell>
        <mxCell id="SGIreacJ4iyyP0TTXn9Y-57" value="站点/线路常旅客库中&lt;br&gt;UserID是否存在？" style="rhombus;whiteSpace=wrap;html=1;flipV=1;" parent="1" vertex="1">
          <mxGeometry x="2340" y="1956" width="200" height="50" as="geometry" />
        </mxCell>
        <mxCell id="SGIreacJ4iyyP0TTXn9Y-136" value="是" style="edgeStyle=orthogonalEdgeStyle;rounded=0;orthogonalLoop=1;jettySize=auto;html=1;exitX=0.5;exitY=1;exitDx=0;exitDy=0;entryX=0.5;entryY=0;entryDx=0;entryDy=0;" parent="1" source="SGIreacJ4iyyP0TTXn9Y-54" target="SGIreacJ4iyyP0TTXn9Y-57" edge="1">
          <mxGeometry x="-1000" y="1600" as="geometry" />
        </mxCell>
        <mxCell id="BiACdV3-vk9zJD2BeTZf-77" value="" style="group" parent="1" vertex="1" connectable="0">
          <mxGeometry x="1980" y="-146" width="882" height="1189" as="geometry" />
        </mxCell>
        <mxCell id="BiACdV3-vk9zJD2BeTZf-11" value="" style="endArrow=none;dashed=1;html=1;fillColor=#f8cecc;strokeColor=#FF0000;" parent="BiACdV3-vk9zJD2BeTZf-77" edge="1">
          <mxGeometry y="80" width="50" height="50" as="geometry">
            <mxPoint y="326" as="sourcePoint" />
            <mxPoint x="880" y="326" as="targetPoint" />
          </mxGeometry>
        </mxCell>
        <mxCell id="BiACdV3-vk9zJD2BeTZf-12" value="进站结束" style="rounded=1;whiteSpace=wrap;html=1;fillColor=#dae8fc;strokeColor=#6c8ebf;" parent="BiACdV3-vk9zJD2BeTZf-77" vertex="1">
          <mxGeometry x="389" y="1093" width="100" height="50" as="geometry" />
        </mxCell>
        <mxCell id="BiACdV3-vk9zJD2BeTZf-13" style="edgeStyle=orthogonalEdgeStyle;rounded=0;orthogonalLoop=1;jettySize=auto;html=1;exitX=1;exitY=0.5;exitDx=0;exitDy=0;" parent="BiACdV3-vk9zJD2BeTZf-77" edge="1">
          <mxGeometry as="geometry">
            <mxPoint x="440" y="235" as="targetPoint" />
            <mxPoint x="480" y="280" as="sourcePoint" />
            <Array as="points">
              <mxPoint x="500" y="280" />
              <mxPoint x="500" y="235" />
            </Array>
          </mxGeometry>
        </mxCell>
        <mxCell id="BiACdV3-vk9zJD2BeTZf-14" value="否" style="edgeLabel;html=1;align=center;verticalAlign=middle;resizable=0;points=[];" parent="BiACdV3-vk9zJD2BeTZf-13" vertex="1" connectable="0">
          <mxGeometry x="-0.3227" relative="1" as="geometry">
            <mxPoint as="offset" />
          </mxGeometry>
        </mxCell>
        <mxCell id="BiACdV3-vk9zJD2BeTZf-15" value="人脸质量分？" style="rhombus;whiteSpace=wrap;html=1;" parent="BiACdV3-vk9zJD2BeTZf-77" vertex="1">
          <mxGeometry x="390" y="255" width="100" height="50" as="geometry" />
        </mxCell>
        <mxCell id="BiACdV3-vk9zJD2BeTZf-16" style="edgeStyle=orthogonalEdgeStyle;rounded=0;orthogonalLoop=1;jettySize=auto;html=1;exitX=0.5;exitY=1;exitDx=0;exitDy=0;entryX=0.5;entryY=0;entryDx=0;entryDy=0;" parent="BiACdV3-vk9zJD2BeTZf-77" source="BiACdV3-vk9zJD2BeTZf-15" target="BiACdV3-vk9zJD2BeTZf-18" edge="1">
          <mxGeometry as="geometry">
            <mxPoint x="440" y="354" as="targetPoint" />
          </mxGeometry>
        </mxCell>
        <mxCell id="BiACdV3-vk9zJD2BeTZf-17" value="是" style="edgeLabel;html=1;align=center;verticalAlign=middle;resizable=0;points=[];" parent="BiACdV3-vk9zJD2BeTZf-16" vertex="1" connectable="0">
          <mxGeometry x="-0.3146" y="1" relative="1" as="geometry">
            <mxPoint x="-1" y="-23.28" as="offset" />
          </mxGeometry>
        </mxCell>
        <mxCell id="QFfBQqacpw4Q1S9WYrsz-112" style="edgeStyle=orthogonalEdgeStyle;rounded=0;orthogonalLoop=1;jettySize=auto;html=1;exitX=1;exitY=0.5;exitDx=0;exitDy=0;entryX=0.5;entryY=0;entryDx=0;entryDy=0;shadow=1;" edge="1" parent="BiACdV3-vk9zJD2BeTZf-77" source="BiACdV3-vk9zJD2BeTZf-18" target="QFfBQqacpw4Q1S9WYrsz-105">
          <mxGeometry relative="1" as="geometry" />
        </mxCell>
        <mxCell id="BiACdV3-vk9zJD2BeTZf-18" value="进站旅客动态库&lt;br&gt;S&lt;sub&gt;max&lt;/sub&gt;&amp;gt;T&lt;span style=&quot;font-size: 10px&quot;&gt;0&lt;/span&gt;?" style="rhombus;whiteSpace=wrap;html=1;" parent="BiACdV3-vk9zJD2BeTZf-77" vertex="1">
          <mxGeometry x="339" y="400" width="200" height="50" as="geometry" />
        </mxCell>
        <mxCell id="BiACdV3-vk9zJD2BeTZf-31" style="edgeStyle=orthogonalEdgeStyle;rounded=0;orthogonalLoop=1;jettySize=auto;html=1;exitX=0.5;exitY=1;exitDx=0;exitDy=0;" parent="BiACdV3-vk9zJD2BeTZf-77" source="BiACdV3-vk9zJD2BeTZf-75" edge="1">
          <mxGeometry x="-1" y="34" as="geometry">
            <mxPoint x="440" y="1093" as="targetPoint" />
            <Array as="points">
              <mxPoint x="159" y="1066" />
              <mxPoint x="440" y="1066" />
            </Array>
            <mxPoint x="303" y="1047" as="sourcePoint" />
          </mxGeometry>
        </mxCell>
        <mxCell id="BiACdV3-vk9zJD2BeTZf-32" value="开始进站" style="rounded=1;whiteSpace=wrap;html=1;fillColor=#dae8fc;strokeColor=#6c8ebf;" parent="BiACdV3-vk9zJD2BeTZf-77" vertex="1">
          <mxGeometry x="390" y="80" width="100" height="50" as="geometry" />
        </mxCell>
        <mxCell id="BiACdV3-vk9zJD2BeTZf-33" value="" style="edgeStyle=orthogonalEdgeStyle;rounded=0;orthogonalLoop=1;jettySize=auto;html=1;strokeColor=#000000;" parent="BiACdV3-vk9zJD2BeTZf-77" source="BiACdV3-vk9zJD2BeTZf-34" target="BiACdV3-vk9zJD2BeTZf-12" edge="1">
          <mxGeometry x="-1" y="34" as="geometry" />
        </mxCell>
        <mxCell id="BiACdV3-vk9zJD2BeTZf-34" value="人脸识别不通过" style="rounded=0;whiteSpace=wrap;html=1;fillColor=#f5f5f5;strokeColor=#666666;gradientColor=#b3b3b3;" parent="BiACdV3-vk9zJD2BeTZf-77" vertex="1">
          <mxGeometry x="389" y="997" width="100" height="50" as="geometry" />
        </mxCell>
        <mxCell id="BiACdV3-vk9zJD2BeTZf-35" value="闸机面板" style="text;html=1;strokeColor=none;fillColor=none;align=center;verticalAlign=middle;whiteSpace=wrap;rounded=0;" parent="BiACdV3-vk9zJD2BeTZf-77" vertex="1">
          <mxGeometry x="824" y="306" width="58" height="20" as="geometry" />
        </mxCell>
        <mxCell id="BiACdV3-vk9zJD2BeTZf-36" value="人脸识别平台" style="text;html=1;strokeColor=none;fillColor=none;align=center;verticalAlign=middle;whiteSpace=wrap;rounded=0;" parent="BiACdV3-vk9zJD2BeTZf-77" vertex="1">
          <mxGeometry x="804" y="327" width="78" height="20" as="geometry" />
        </mxCell>
        <mxCell id="BiACdV3-vk9zJD2BeTZf-37" value="闸机面板" style="text;html=1;strokeColor=none;fillColor=none;align=left;verticalAlign=middle;whiteSpace=wrap;rounded=0;" parent="BiACdV3-vk9zJD2BeTZf-77" vertex="1">
          <mxGeometry x="4" y="306" width="58" height="20" as="geometry" />
        </mxCell>
        <mxCell id="BiACdV3-vk9zJD2BeTZf-38" value="人脸识别平台" style="text;html=1;strokeColor=none;fillColor=none;align=left;verticalAlign=middle;whiteSpace=wrap;rounded=0;" parent="BiACdV3-vk9zJD2BeTZf-77" vertex="1">
          <mxGeometry x="4" y="327" width="78" height="20" as="geometry" />
        </mxCell>
        <mxCell id="BiACdV3-vk9zJD2BeTZf-39" value="" style="endArrow=none;dashed=1;html=1;fillColor=#f8cecc;strokeColor=#FF0000;" parent="BiACdV3-vk9zJD2BeTZf-77" edge="1">
          <mxGeometry x="-1" y="34" width="50" height="50" as="geometry">
            <mxPoint x="-1" y="973" as="sourcePoint" />
            <mxPoint x="879" y="973" as="targetPoint" />
          </mxGeometry>
        </mxCell>
        <mxCell id="BiACdV3-vk9zJD2BeTZf-40" value="人脸识别平台" style="text;html=1;strokeColor=none;fillColor=none;align=right;verticalAlign=middle;whiteSpace=wrap;rounded=0;" parent="BiACdV3-vk9zJD2BeTZf-77" vertex="1">
          <mxGeometry x="793" y="953" width="88" height="20" as="geometry" />
        </mxCell>
        <mxCell id="BiACdV3-vk9zJD2BeTZf-41" value="闸机面板" style="text;html=1;strokeColor=none;fillColor=none;align=right;verticalAlign=middle;whiteSpace=wrap;rounded=0;" parent="BiACdV3-vk9zJD2BeTZf-77" vertex="1">
          <mxGeometry x="803" y="974" width="78" height="20" as="geometry" />
        </mxCell>
        <mxCell id="BiACdV3-vk9zJD2BeTZf-42" value="人脸识别平台" style="text;html=1;strokeColor=none;fillColor=none;align=left;verticalAlign=middle;whiteSpace=wrap;rounded=0;" parent="BiACdV3-vk9zJD2BeTZf-77" vertex="1">
          <mxGeometry x="3" y="953" width="80" height="20" as="geometry" />
        </mxCell>
        <mxCell id="BiACdV3-vk9zJD2BeTZf-43" value="闸机面板" style="text;html=1;strokeColor=none;fillColor=none;align=left;verticalAlign=middle;whiteSpace=wrap;rounded=0;" parent="BiACdV3-vk9zJD2BeTZf-77" vertex="1">
          <mxGeometry x="3" y="974" width="78" height="20" as="geometry" />
        </mxCell>
        <mxCell id="BiACdV3-vk9zJD2BeTZf-44" value="" style="edgeStyle=orthogonalEdgeStyle;rounded=0;orthogonalLoop=1;jettySize=auto;html=1;exitX=0.5;exitY=1;exitDx=0;exitDy=0;entryX=0.5;entryY=0;entryDx=0;entryDy=0;" parent="BiACdV3-vk9zJD2BeTZf-77" source="BiACdV3-vk9zJD2BeTZf-46" target="BiACdV3-vk9zJD2BeTZf-15" edge="1">
          <mxGeometry x="-1000" y="80" as="geometry">
            <mxPoint y="-12" as="offset" />
          </mxGeometry>
        </mxCell>
        <mxCell id="BiACdV3-vk9zJD2BeTZf-45" value="是" style="edgeLabel;html=1;align=center;verticalAlign=middle;resizable=0;points=[];" parent="BiACdV3-vk9zJD2BeTZf-44" vertex="1" connectable="0">
          <mxGeometry relative="1" as="geometry">
            <mxPoint y="-14" as="offset" />
          </mxGeometry>
        </mxCell>
        <mxCell id="BiACdV3-vk9zJD2BeTZf-46" value="3D结构光&lt;br&gt;活体检测？" style="rhombus;whiteSpace=wrap;html=1;" parent="BiACdV3-vk9zJD2BeTZf-77" vertex="1">
          <mxGeometry x="390" y="160" width="100" height="50" as="geometry" />
        </mxCell>
        <mxCell id="BiACdV3-vk9zJD2BeTZf-47" style="edgeStyle=orthogonalEdgeStyle;rounded=0;orthogonalLoop=1;jettySize=auto;html=1;exitX=0.5;exitY=1;exitDx=0;exitDy=0;" parent="BiACdV3-vk9zJD2BeTZf-77" source="BiACdV3-vk9zJD2BeTZf-32" target="BiACdV3-vk9zJD2BeTZf-46" edge="1">
          <mxGeometry y="80" as="geometry" />
        </mxCell>
        <mxCell id="BiACdV3-vk9zJD2BeTZf-48" style="edgeStyle=orthogonalEdgeStyle;rounded=0;orthogonalLoop=1;jettySize=auto;html=1;entryX=1;entryY=0.5;entryDx=0;entryDy=0;exitX=0.5;exitY=0;exitDx=0;exitDy=0;opacity=50;dashed=1;" parent="BiACdV3-vk9zJD2BeTZf-77" source="BiACdV3-vk9zJD2BeTZf-49" target="BiACdV3-vk9zJD2BeTZf-32" edge="1">
          <mxGeometry y="80" as="geometry" />
        </mxCell>
        <mxCell id="BiACdV3-vk9zJD2BeTZf-49" value="人脸识别不通过" style="rounded=0;whiteSpace=wrap;html=1;fillColor=#f5f5f5;strokeColor=#666666;gradientColor=#b3b3b3;" parent="BiACdV3-vk9zJD2BeTZf-77" vertex="1">
          <mxGeometry x="574" y="160" width="100" height="50" as="geometry" />
        </mxCell>
        <mxCell id="BiACdV3-vk9zJD2BeTZf-50" value="否" style="edgeStyle=orthogonalEdgeStyle;rounded=0;orthogonalLoop=1;jettySize=auto;html=1;" parent="BiACdV3-vk9zJD2BeTZf-77" source="BiACdV3-vk9zJD2BeTZf-46" target="BiACdV3-vk9zJD2BeTZf-49" edge="1">
          <mxGeometry x="-1000" y="80" as="geometry">
            <mxPoint x="-1" as="offset" />
          </mxGeometry>
        </mxCell>
        <mxCell id="BiACdV3-vk9zJD2BeTZf-54" value="&lt;font style=&quot;font-size: 32px&quot;&gt;刷脸出站流程&lt;/font&gt;" style="text;html=1;strokeColor=none;fillColor=none;align=center;verticalAlign=middle;whiteSpace=wrap;rounded=0;" parent="BiACdV3-vk9zJD2BeTZf-77" vertex="1">
          <mxGeometry x="337" width="206" height="20" as="geometry" />
        </mxCell>
        <mxCell id="BiACdV3-vk9zJD2BeTZf-62" style="edgeStyle=orthogonalEdgeStyle;rounded=0;orthogonalLoop=1;jettySize=auto;html=1;exitX=0;exitY=0.5;exitDx=0;exitDy=0;startArrow=classic;startFill=1;endArrow=none;endFill=0;strokeColor=#000000;" parent="BiACdV3-vk9zJD2BeTZf-77" source="BiACdV3-vk9zJD2BeTZf-64" edge="1">
          <mxGeometry x="-1" y="-46" as="geometry">
            <mxPoint x="159" y="924" as="targetPoint" />
            <mxPoint x="244" y="924" as="sourcePoint" />
            <Array as="points">
              <mxPoint x="159" y="931" />
            </Array>
          </mxGeometry>
        </mxCell>
        <mxCell id="BiACdV3-vk9zJD2BeTZf-64" value="&lt;span style=&quot;text-align: center&quot;&gt;新增或更新&lt;/span&gt;&lt;span style=&quot;text-align: center&quot;&gt;站点常旅客库、线路常旅客库；&lt;/span&gt;" style="rounded=0;whiteSpace=wrap;html=1;align=left;" parent="BiACdV3-vk9zJD2BeTZf-77" vertex="1">
          <mxGeometry x="239" y="909" width="151" height="44" as="geometry" />
        </mxCell>
        <mxCell id="QFfBQqacpw4Q1S9WYrsz-162" style="edgeStyle=orthogonalEdgeStyle;rounded=0;orthogonalLoop=1;jettySize=auto;html=1;exitX=1;exitY=0.5;exitDx=0;exitDy=0;entryX=0;entryY=0.5;entryDx=0;entryDy=0;shadow=1;" edge="1" parent="BiACdV3-vk9zJD2BeTZf-77" source="BiACdV3-vk9zJD2BeTZf-69" target="BiACdV3-vk9zJD2BeTZf-72">
          <mxGeometry relative="1" as="geometry" />
        </mxCell>
        <mxCell id="QFfBQqacpw4Q1S9WYrsz-163" value="是" style="edgeLabel;html=1;align=center;verticalAlign=middle;resizable=0;points=[];" vertex="1" connectable="0" parent="QFfBQqacpw4Q1S9WYrsz-162">
          <mxGeometry x="0.1765" y="-1" relative="1" as="geometry">
            <mxPoint x="-1" as="offset" />
          </mxGeometry>
        </mxCell>
        <mxCell id="BiACdV3-vk9zJD2BeTZf-69" value="异常用户集？" style="rhombus;whiteSpace=wrap;html=1;fillColor=#d5e8d4;strokeColor=#82b366;" parent="BiACdV3-vk9zJD2BeTZf-77" vertex="1">
          <mxGeometry x="104" y="786" width="110" height="50" as="geometry" />
        </mxCell>
        <mxCell id="BiACdV3-vk9zJD2BeTZf-70" style="edgeStyle=orthogonalEdgeStyle;rounded=0;orthogonalLoop=1;jettySize=auto;html=1;exitX=0.5;exitY=1;exitDx=0;exitDy=0;startArrow=none;startFill=0;endArrow=classic;endFill=1;strokeColor=#82b366;fillColor=#d5e8d4;" parent="BiACdV3-vk9zJD2BeTZf-77" source="BiACdV3-vk9zJD2BeTZf-72" edge="1">
          <mxGeometry x="-1" y="-46" as="geometry">
            <mxPoint x="159" y="884" as="targetPoint" />
            <mxPoint x="357" y="854" as="sourcePoint" />
            <Array as="points">
              <mxPoint x="326" y="884" />
            </Array>
          </mxGeometry>
        </mxCell>
        <mxCell id="QFfBQqacpw4Q1S9WYrsz-159" value="是" style="edgeLabel;html=1;align=center;verticalAlign=middle;resizable=0;points=[];" vertex="1" connectable="0" parent="BiACdV3-vk9zJD2BeTZf-70">
          <mxGeometry relative="1" as="geometry">
            <mxPoint x="-1" y="1" as="offset" />
          </mxGeometry>
        </mxCell>
        <mxCell id="BiACdV3-vk9zJD2BeTZf-72" value="S&lt;span style=&quot;font-size: 10px&quot;&gt;&lt;sub&gt;max&lt;/sub&gt;&lt;/span&gt;&amp;gt;T1?" style="rhombus;whiteSpace=wrap;html=1;fillColor=#d5e8d4;strokeColor=#82b366;" parent="BiACdV3-vk9zJD2BeTZf-77" vertex="1">
          <mxGeometry x="271" y="786" width="110" height="50" as="geometry" />
        </mxCell>
        <mxCell id="BiACdV3-vk9zJD2BeTZf-75" value="返回比对结果;" style="rounded=0;whiteSpace=wrap;html=1;fillColor=#f8cecc;strokeColor=#b85450;" parent="BiACdV3-vk9zJD2BeTZf-77" vertex="1">
          <mxGeometry x="109" y="997" width="100" height="50" as="geometry" />
        </mxCell>
        <mxCell id="BiACdV3-vk9zJD2BeTZf-67" style="edgeStyle=orthogonalEdgeStyle;rounded=0;orthogonalLoop=1;jettySize=auto;html=1;exitX=0.5;exitY=1;exitDx=0;exitDy=0;startArrow=none;startFill=0;endArrow=classic;endFill=1;strokeColor=#000000;" parent="BiACdV3-vk9zJD2BeTZf-77" source="BiACdV3-vk9zJD2BeTZf-69" target="BiACdV3-vk9zJD2BeTZf-75" edge="1">
          <mxGeometry x="-1" y="-46" as="geometry" />
        </mxCell>
        <mxCell id="BiACdV3-vk9zJD2BeTZf-68" value="否" style="edgeLabel;html=1;align=center;verticalAlign=middle;resizable=0;points=[];" parent="BiACdV3-vk9zJD2BeTZf-67" vertex="1" connectable="0">
          <mxGeometry x="-0.8996" relative="1" as="geometry">
            <mxPoint y="4.57" as="offset" />
          </mxGeometry>
        </mxCell>
        <mxCell id="1f0OFDxYb1WzkCkjiEqP-129" style="edgeStyle=orthogonalEdgeStyle;rounded=0;orthogonalLoop=1;jettySize=auto;html=1;exitX=0;exitY=0.5;exitDx=0;exitDy=0;entryX=0.5;entryY=0;entryDx=0;entryDy=0;" parent="BiACdV3-vk9zJD2BeTZf-77" source="1f0OFDxYb1WzkCkjiEqP-97" target="BiACdV3-vk9zJD2BeTZf-69" edge="1">
          <mxGeometry relative="1" as="geometry" />
        </mxCell>
        <mxCell id="1f0OFDxYb1WzkCkjiEqP-133" value="是" style="edgeLabel;html=1;align=center;verticalAlign=middle;resizable=0;points=[];" parent="1f0OFDxYb1WzkCkjiEqP-129" vertex="1" connectable="0">
          <mxGeometry x="-0.5416" y="1" relative="1" as="geometry">
            <mxPoint as="offset" />
          </mxGeometry>
        </mxCell>
        <mxCell id="1f0OFDxYb1WzkCkjiEqP-97" value="站点常旅客库&lt;br&gt;Smax&amp;gt;T0?" style="rhombus;whiteSpace=wrap;html=1;" parent="BiACdV3-vk9zJD2BeTZf-77" vertex="1">
          <mxGeometry x="339" y="514" width="200" height="50" as="geometry" />
        </mxCell>
        <mxCell id="1f0OFDxYb1WzkCkjiEqP-119" value="" style="edgeStyle=orthogonalEdgeStyle;rounded=0;orthogonalLoop=1;jettySize=auto;html=1;" parent="BiACdV3-vk9zJD2BeTZf-77" source="BiACdV3-vk9zJD2BeTZf-18" target="1f0OFDxYb1WzkCkjiEqP-97" edge="1">
          <mxGeometry relative="1" as="geometry" />
        </mxCell>
        <mxCell id="1f0OFDxYb1WzkCkjiEqP-122" value="否" style="edgeLabel;html=1;align=center;verticalAlign=middle;resizable=0;points=[];" parent="1f0OFDxYb1WzkCkjiEqP-119" vertex="1" connectable="0">
          <mxGeometry x="-0.5374" y="1" relative="1" as="geometry">
            <mxPoint x="-1" y="24" as="offset" />
          </mxGeometry>
        </mxCell>
        <mxCell id="1f0OFDxYb1WzkCkjiEqP-107" value="10W级" style="text;html=1;strokeColor=none;fillColor=none;align=center;verticalAlign=middle;whiteSpace=wrap;rounded=0;fontColor=#FF0000;fontStyle=2" parent="BiACdV3-vk9zJD2BeTZf-77" vertex="1">
          <mxGeometry x="309" y="514" width="48" height="20" as="geometry" />
        </mxCell>
        <mxCell id="1f0OFDxYb1WzkCkjiEqP-109" value="500W级" style="text;html=1;strokeColor=none;fillColor=none;align=center;verticalAlign=middle;whiteSpace=wrap;rounded=0;fontColor=#FF0000;fontStyle=2" parent="BiACdV3-vk9zJD2BeTZf-77" vertex="1">
          <mxGeometry x="309" y="694" width="48" height="20" as="geometry" />
        </mxCell>
        <mxCell id="QFfBQqacpw4Q1S9WYrsz-100" value="&lt;span style=&quot;text-align: center&quot;&gt;新增或更新&lt;/span&gt;&lt;span style=&quot;text-align: center&quot;&gt;站点常旅客库；&lt;/span&gt;&lt;br style=&quot;font-size: 11px&quot;&gt;&lt;span style=&quot;text-align: center&quot;&gt;将该人员底库的人脸特征值从进站旅客动态库删除；&lt;/span&gt;" style="rounded=0;whiteSpace=wrap;html=1;align=left;" vertex="1" parent="BiACdV3-vk9zJD2BeTZf-77">
          <mxGeometry x="500" y="910" width="160" height="56" as="geometry" />
        </mxCell>
        <mxCell id="QFfBQqacpw4Q1S9WYrsz-121" value="是" style="edgeStyle=orthogonalEdgeStyle;rounded=0;orthogonalLoop=1;jettySize=auto;html=1;exitX=0;exitY=0.5;exitDx=0;exitDy=0;entryX=1;entryY=0.5;entryDx=0;entryDy=0;shadow=1;" edge="1" parent="BiACdV3-vk9zJD2BeTZf-77" source="QFfBQqacpw4Q1S9WYrsz-105" target="QFfBQqacpw4Q1S9WYrsz-113">
          <mxGeometry relative="1" as="geometry" />
        </mxCell>
        <mxCell id="QFfBQqacpw4Q1S9WYrsz-105" value="异常用户集？" style="rhombus;whiteSpace=wrap;html=1;fillColor=#d5e8d4;strokeColor=#82b366;" vertex="1" parent="BiACdV3-vk9zJD2BeTZf-77">
          <mxGeometry x="703" y="783.5" width="110" height="50" as="geometry" />
        </mxCell>
        <mxCell id="QFfBQqacpw4Q1S9WYrsz-113" value="S&lt;span style=&quot;font-size: 10px&quot;&gt;&lt;sub&gt;max&lt;/sub&gt;&lt;/span&gt;&amp;gt;T1?" style="rhombus;whiteSpace=wrap;html=1;fillColor=#d5e8d4;strokeColor=#82b366;" vertex="1" parent="BiACdV3-vk9zJD2BeTZf-77">
          <mxGeometry x="539" y="783.5" width="110" height="50" as="geometry" />
        </mxCell>
        <mxCell id="1f0OFDxYb1WzkCkjiEqP-98" value="线路常旅客库&lt;br&gt;Smax&amp;gt;T0?" style="rhombus;whiteSpace=wrap;html=1;" parent="BiACdV3-vk9zJD2BeTZf-77" vertex="1">
          <mxGeometry x="336" y="614" width="200" height="50" as="geometry" />
        </mxCell>
        <mxCell id="1f0OFDxYb1WzkCkjiEqP-114" value="" style="edgeStyle=orthogonalEdgeStyle;rounded=0;orthogonalLoop=1;jettySize=auto;html=1;" parent="BiACdV3-vk9zJD2BeTZf-77" source="1f0OFDxYb1WzkCkjiEqP-97" target="1f0OFDxYb1WzkCkjiEqP-98" edge="1">
          <mxGeometry relative="1" as="geometry" />
        </mxCell>
        <mxCell id="1f0OFDxYb1WzkCkjiEqP-123" value="否" style="edgeLabel;html=1;align=center;verticalAlign=middle;resizable=0;points=[];" parent="1f0OFDxYb1WzkCkjiEqP-114" vertex="1" connectable="0">
          <mxGeometry x="-0.2721" relative="1" as="geometry">
            <mxPoint as="offset" />
          </mxGeometry>
        </mxCell>
        <mxCell id="1f0OFDxYb1WzkCkjiEqP-131" style="edgeStyle=orthogonalEdgeStyle;rounded=0;orthogonalLoop=1;jettySize=auto;html=1;exitX=0;exitY=0.5;exitDx=0;exitDy=0;entryX=0.5;entryY=0;entryDx=0;entryDy=0;" parent="BiACdV3-vk9zJD2BeTZf-77" source="1f0OFDxYb1WzkCkjiEqP-98" edge="1" target="BiACdV3-vk9zJD2BeTZf-69">
          <mxGeometry relative="1" as="geometry">
            <mxPoint x="129" y="904" as="targetPoint" />
            <Array as="points">
              <mxPoint x="159" y="639" />
            </Array>
          </mxGeometry>
        </mxCell>
        <mxCell id="1f0OFDxYb1WzkCkjiEqP-134" value="是" style="edgeLabel;html=1;align=center;verticalAlign=middle;resizable=0;points=[];" parent="1f0OFDxYb1WzkCkjiEqP-131" vertex="1" connectable="0">
          <mxGeometry x="-0.4106" y="3" relative="1" as="geometry">
            <mxPoint as="offset" />
          </mxGeometry>
        </mxCell>
        <mxCell id="1f0OFDxYb1WzkCkjiEqP-101" value="地铁全量库&lt;br&gt;Smax&amp;gt;T0?" style="rhombus;whiteSpace=wrap;html=1;" parent="BiACdV3-vk9zJD2BeTZf-77" vertex="1">
          <mxGeometry x="336" y="694" width="200" height="50" as="geometry" />
        </mxCell>
        <mxCell id="1f0OFDxYb1WzkCkjiEqP-115" value="" style="edgeStyle=orthogonalEdgeStyle;rounded=0;orthogonalLoop=1;jettySize=auto;html=1;" parent="BiACdV3-vk9zJD2BeTZf-77" source="1f0OFDxYb1WzkCkjiEqP-98" target="1f0OFDxYb1WzkCkjiEqP-101" edge="1">
          <mxGeometry relative="1" as="geometry" />
        </mxCell>
        <mxCell id="1f0OFDxYb1WzkCkjiEqP-124" value="否" style="edgeLabel;html=1;align=center;verticalAlign=middle;resizable=0;points=[];" parent="1f0OFDxYb1WzkCkjiEqP-115" vertex="1" connectable="0">
          <mxGeometry x="-0.2847" y="1" relative="1" as="geometry">
            <mxPoint as="offset" />
          </mxGeometry>
        </mxCell>
        <mxCell id="1f0OFDxYb1WzkCkjiEqP-125" style="edgeStyle=orthogonalEdgeStyle;rounded=0;orthogonalLoop=1;jettySize=auto;html=1;exitX=0.5;exitY=1;exitDx=0;exitDy=0;entryX=0.5;entryY=0;entryDx=0;entryDy=0;" parent="BiACdV3-vk9zJD2BeTZf-77" source="1f0OFDxYb1WzkCkjiEqP-101" target="BiACdV3-vk9zJD2BeTZf-34" edge="1">
          <mxGeometry relative="1" as="geometry">
            <Array as="points">
              <mxPoint x="439" y="744" />
            </Array>
          </mxGeometry>
        </mxCell>
        <mxCell id="1f0OFDxYb1WzkCkjiEqP-126" value="否" style="edgeLabel;html=1;align=center;verticalAlign=middle;resizable=0;points=[];" parent="1f0OFDxYb1WzkCkjiEqP-125" vertex="1" connectable="0">
          <mxGeometry x="-0.7513" y="1" relative="1" as="geometry">
            <mxPoint as="offset" />
          </mxGeometry>
        </mxCell>
        <mxCell id="1f0OFDxYb1WzkCkjiEqP-132" style="edgeStyle=orthogonalEdgeStyle;rounded=0;orthogonalLoop=1;jettySize=auto;html=1;exitX=0;exitY=0.5;exitDx=0;exitDy=0;entryX=0.5;entryY=0;entryDx=0;entryDy=0;" parent="BiACdV3-vk9zJD2BeTZf-77" source="1f0OFDxYb1WzkCkjiEqP-101" target="BiACdV3-vk9zJD2BeTZf-69" edge="1">
          <mxGeometry relative="1" as="geometry">
            <Array as="points">
              <mxPoint x="159" y="719" />
            </Array>
          </mxGeometry>
        </mxCell>
        <mxCell id="1f0OFDxYb1WzkCkjiEqP-135" value="是" style="edgeLabel;html=1;align=center;verticalAlign=middle;resizable=0;points=[];" parent="1f0OFDxYb1WzkCkjiEqP-132" vertex="1" connectable="0">
          <mxGeometry x="-0.1913" y="1" relative="1" as="geometry">
            <mxPoint as="offset" />
          </mxGeometry>
        </mxCell>
        <mxCell id="QFfBQqacpw4Q1S9WYrsz-130" style="edgeStyle=orthogonalEdgeStyle;rounded=0;orthogonalLoop=1;jettySize=auto;html=1;exitX=0.5;exitY=1;exitDx=0;exitDy=0;entryX=0.5;entryY=0;entryDx=0;entryDy=0;shadow=1;" edge="1" parent="BiACdV3-vk9zJD2BeTZf-77" source="QFfBQqacpw4Q1S9WYrsz-125" target="BiACdV3-vk9zJD2BeTZf-12">
          <mxGeometry relative="1" as="geometry">
            <Array as="points">
              <mxPoint x="760" y="1047" />
              <mxPoint x="760" y="1066" />
              <mxPoint x="439" y="1066" />
            </Array>
          </mxGeometry>
        </mxCell>
        <mxCell id="QFfBQqacpw4Q1S9WYrsz-125" value="返回比对结果;" style="rounded=0;whiteSpace=wrap;html=1;fillColor=#f8cecc;strokeColor=#b85450;" vertex="1" parent="BiACdV3-vk9zJD2BeTZf-77">
          <mxGeometry x="703" y="997" width="100" height="50" as="geometry" />
        </mxCell>
        <mxCell id="M9WVtqgSQ9D_E9_VqV0K-252" value="&lt;font style=&quot;font-size: 14px ; line-height: 160%&quot;&gt;备注说明：&lt;br&gt;1. 动作活体检测全过程在App端实现，支持Android和iOS；&lt;br&gt;2. 人脸识别平台中有一套人脸特征值提取模型，在人脸注册时引导用户摘下口罩；&lt;br&gt;&lt;/font&gt;" style="text;html=1;strokeColor=none;fillColor=none;align=left;verticalAlign=top;whiteSpace=wrap;rounded=0;" parent="1" vertex="1">
          <mxGeometry y="1380" width="1000" height="120" as="geometry" />
        </mxCell>
        <mxCell id="QFfBQqacpw4Q1S9WYrsz-31" style="edgeStyle=orthogonalEdgeStyle;rounded=0;orthogonalLoop=1;jettySize=auto;html=1;shadow=1;" edge="1" parent="1" source="1f0OFDxYb1WzkCkjiEqP-46">
          <mxGeometry relative="1" as="geometry">
            <mxPoint x="340" y="170" as="targetPoint" />
            <Array as="points">
              <mxPoint x="620" y="140" />
              <mxPoint x="340" y="140" />
            </Array>
          </mxGeometry>
        </mxCell>
        <mxCell id="QFfBQqacpw4Q1S9WYrsz-33" value="" style="group" vertex="1" connectable="0" parent="1">
          <mxGeometry x="3380" y="20" width="882" height="1189" as="geometry" />
        </mxCell>
        <mxCell id="QFfBQqacpw4Q1S9WYrsz-34" value="" style="endArrow=none;dashed=1;html=1;fillColor=#f8cecc;strokeColor=#FF0000;" edge="1" parent="QFfBQqacpw4Q1S9WYrsz-33">
          <mxGeometry y="80" width="50" height="50" as="geometry">
            <mxPoint y="326" as="sourcePoint" />
            <mxPoint x="880" y="326" as="targetPoint" />
          </mxGeometry>
        </mxCell>
        <mxCell id="QFfBQqacpw4Q1S9WYrsz-35" value="进站结束" style="rounded=1;whiteSpace=wrap;html=1;fillColor=#dae8fc;strokeColor=#6c8ebf;" vertex="1" parent="QFfBQqacpw4Q1S9WYrsz-33">
          <mxGeometry x="390" y="1139" width="100" height="50" as="geometry" />
        </mxCell>
        <mxCell id="QFfBQqacpw4Q1S9WYrsz-36" style="edgeStyle=orthogonalEdgeStyle;rounded=0;orthogonalLoop=1;jettySize=auto;html=1;exitX=1;exitY=0.5;exitDx=0;exitDy=0;" edge="1" parent="QFfBQqacpw4Q1S9WYrsz-33">
          <mxGeometry as="geometry">
            <mxPoint x="440" y="235" as="targetPoint" />
            <mxPoint x="480" y="280" as="sourcePoint" />
            <Array as="points">
              <mxPoint x="500" y="280" />
              <mxPoint x="500" y="235" />
            </Array>
          </mxGeometry>
        </mxCell>
        <mxCell id="QFfBQqacpw4Q1S9WYrsz-37" value="否" style="edgeLabel;html=1;align=center;verticalAlign=middle;resizable=0;points=[];" vertex="1" connectable="0" parent="QFfBQqacpw4Q1S9WYrsz-36">
          <mxGeometry x="-0.3227" relative="1" as="geometry">
            <mxPoint as="offset" />
          </mxGeometry>
        </mxCell>
        <mxCell id="QFfBQqacpw4Q1S9WYrsz-38" value="人脸质量分？" style="rhombus;whiteSpace=wrap;html=1;" vertex="1" parent="QFfBQqacpw4Q1S9WYrsz-33">
          <mxGeometry x="390" y="255" width="100" height="50" as="geometry" />
        </mxCell>
        <mxCell id="QFfBQqacpw4Q1S9WYrsz-39" style="edgeStyle=orthogonalEdgeStyle;rounded=0;orthogonalLoop=1;jettySize=auto;html=1;exitX=0.5;exitY=1;exitDx=0;exitDy=0;entryX=0.5;entryY=0;entryDx=0;entryDy=0;" edge="1" parent="QFfBQqacpw4Q1S9WYrsz-33" source="QFfBQqacpw4Q1S9WYrsz-38" target="QFfBQqacpw4Q1S9WYrsz-41">
          <mxGeometry as="geometry">
            <mxPoint x="440" y="354" as="targetPoint" />
          </mxGeometry>
        </mxCell>
        <mxCell id="QFfBQqacpw4Q1S9WYrsz-40" value="是" style="edgeLabel;html=1;align=center;verticalAlign=middle;resizable=0;points=[];" vertex="1" connectable="0" parent="QFfBQqacpw4Q1S9WYrsz-39">
          <mxGeometry x="-0.3146" y="1" relative="1" as="geometry">
            <mxPoint x="-1" y="-23.28" as="offset" />
          </mxGeometry>
        </mxCell>
        <mxCell id="QFfBQqacpw4Q1S9WYrsz-41" value="进站旅客动态库&lt;br&gt;S&lt;sub&gt;max&lt;/sub&gt;&amp;gt;T&lt;span style=&quot;font-size: 10px&quot;&gt;0&lt;/span&gt;?" style="rhombus;whiteSpace=wrap;html=1;" vertex="1" parent="QFfBQqacpw4Q1S9WYrsz-33">
          <mxGeometry x="340" y="446" width="200" height="50" as="geometry" />
        </mxCell>
        <mxCell id="QFfBQqacpw4Q1S9WYrsz-42" style="edgeStyle=orthogonalEdgeStyle;rounded=0;orthogonalLoop=1;jettySize=auto;html=1;entryX=0.5;entryY=0;entryDx=0;entryDy=0;exitX=0;exitY=0.5;exitDx=0;exitDy=0;" edge="1" parent="QFfBQqacpw4Q1S9WYrsz-33" source="QFfBQqacpw4Q1S9WYrsz-41" target="QFfBQqacpw4Q1S9WYrsz-70">
          <mxGeometry y="80" as="geometry">
            <mxPoint x="217" y="834" as="targetPoint" />
            <mxPoint x="250" y="500" as="sourcePoint" />
            <Array as="points">
              <mxPoint x="340" y="470" />
              <mxPoint x="160" y="470" />
            </Array>
          </mxGeometry>
        </mxCell>
        <mxCell id="QFfBQqacpw4Q1S9WYrsz-43" value="是" style="edgeLabel;html=1;align=center;verticalAlign=middle;resizable=0;points=[];" vertex="1" connectable="0" parent="QFfBQqacpw4Q1S9WYrsz-42">
          <mxGeometry x="-0.7801" y="-1" relative="1" as="geometry">
            <mxPoint x="-39.1" y="1" as="offset" />
          </mxGeometry>
        </mxCell>
        <mxCell id="QFfBQqacpw4Q1S9WYrsz-44" style="edgeStyle=orthogonalEdgeStyle;rounded=0;orthogonalLoop=1;jettySize=auto;html=1;exitX=0.5;exitY=1;exitDx=0;exitDy=0;" edge="1" parent="QFfBQqacpw4Q1S9WYrsz-33" source="QFfBQqacpw4Q1S9WYrsz-76">
          <mxGeometry y="80" as="geometry">
            <mxPoint x="415" y="1139" as="targetPoint" />
            <Array as="points">
              <mxPoint x="170" y="1110" />
              <mxPoint x="415" y="1110" />
            </Array>
            <mxPoint x="304" y="1093" as="sourcePoint" />
          </mxGeometry>
        </mxCell>
        <mxCell id="QFfBQqacpw4Q1S9WYrsz-45" value="开始进站" style="rounded=1;whiteSpace=wrap;html=1;fillColor=#dae8fc;strokeColor=#6c8ebf;" vertex="1" parent="QFfBQqacpw4Q1S9WYrsz-33">
          <mxGeometry x="390" y="80" width="100" height="50" as="geometry" />
        </mxCell>
        <mxCell id="QFfBQqacpw4Q1S9WYrsz-46" value="" style="edgeStyle=orthogonalEdgeStyle;rounded=0;orthogonalLoop=1;jettySize=auto;html=1;strokeColor=#000000;" edge="1" parent="QFfBQqacpw4Q1S9WYrsz-33" source="QFfBQqacpw4Q1S9WYrsz-47" target="QFfBQqacpw4Q1S9WYrsz-35">
          <mxGeometry y="80" as="geometry" />
        </mxCell>
        <mxCell id="QFfBQqacpw4Q1S9WYrsz-47" value="人脸识别不通过" style="rounded=0;whiteSpace=wrap;html=1;fillColor=#f5f5f5;strokeColor=#666666;gradientColor=#b3b3b3;" vertex="1" parent="QFfBQqacpw4Q1S9WYrsz-33">
          <mxGeometry x="390" y="1043" width="100" height="50" as="geometry" />
        </mxCell>
        <mxCell id="QFfBQqacpw4Q1S9WYrsz-48" value="闸机面板" style="text;html=1;strokeColor=none;fillColor=none;align=center;verticalAlign=middle;whiteSpace=wrap;rounded=0;" vertex="1" parent="QFfBQqacpw4Q1S9WYrsz-33">
          <mxGeometry x="824" y="306" width="58" height="20" as="geometry" />
        </mxCell>
        <mxCell id="QFfBQqacpw4Q1S9WYrsz-49" value="人脸识别平台" style="text;html=1;strokeColor=none;fillColor=none;align=center;verticalAlign=middle;whiteSpace=wrap;rounded=0;" vertex="1" parent="QFfBQqacpw4Q1S9WYrsz-33">
          <mxGeometry x="804" y="327" width="78" height="20" as="geometry" />
        </mxCell>
        <mxCell id="QFfBQqacpw4Q1S9WYrsz-50" value="闸机面板" style="text;html=1;strokeColor=none;fillColor=none;align=left;verticalAlign=middle;whiteSpace=wrap;rounded=0;" vertex="1" parent="QFfBQqacpw4Q1S9WYrsz-33">
          <mxGeometry x="4" y="306" width="58" height="20" as="geometry" />
        </mxCell>
        <mxCell id="QFfBQqacpw4Q1S9WYrsz-51" value="人脸识别平台" style="text;html=1;strokeColor=none;fillColor=none;align=left;verticalAlign=middle;whiteSpace=wrap;rounded=0;" vertex="1" parent="QFfBQqacpw4Q1S9WYrsz-33">
          <mxGeometry x="4" y="327" width="78" height="20" as="geometry" />
        </mxCell>
        <mxCell id="QFfBQqacpw4Q1S9WYrsz-52" value="" style="endArrow=none;dashed=1;html=1;fillColor=#f8cecc;strokeColor=#FF0000;" edge="1" parent="QFfBQqacpw4Q1S9WYrsz-33">
          <mxGeometry y="80" width="50" height="50" as="geometry">
            <mxPoint y="1019" as="sourcePoint" />
            <mxPoint x="880" y="1019" as="targetPoint" />
          </mxGeometry>
        </mxCell>
        <mxCell id="QFfBQqacpw4Q1S9WYrsz-53" value="人脸识别平台" style="text;html=1;strokeColor=none;fillColor=none;align=right;verticalAlign=middle;whiteSpace=wrap;rounded=0;" vertex="1" parent="QFfBQqacpw4Q1S9WYrsz-33">
          <mxGeometry x="794" y="999" width="88" height="20" as="geometry" />
        </mxCell>
        <mxCell id="QFfBQqacpw4Q1S9WYrsz-54" value="闸机面板" style="text;html=1;strokeColor=none;fillColor=none;align=right;verticalAlign=middle;whiteSpace=wrap;rounded=0;" vertex="1" parent="QFfBQqacpw4Q1S9WYrsz-33">
          <mxGeometry x="804" y="1020" width="78" height="20" as="geometry" />
        </mxCell>
        <mxCell id="QFfBQqacpw4Q1S9WYrsz-55" value="人脸识别平台" style="text;html=1;strokeColor=none;fillColor=none;align=left;verticalAlign=middle;whiteSpace=wrap;rounded=0;" vertex="1" parent="QFfBQqacpw4Q1S9WYrsz-33">
          <mxGeometry x="4" y="999" width="80" height="20" as="geometry" />
        </mxCell>
        <mxCell id="QFfBQqacpw4Q1S9WYrsz-56" value="闸机面板" style="text;html=1;strokeColor=none;fillColor=none;align=left;verticalAlign=middle;whiteSpace=wrap;rounded=0;" vertex="1" parent="QFfBQqacpw4Q1S9WYrsz-33">
          <mxGeometry x="4" y="1020" width="78" height="20" as="geometry" />
        </mxCell>
        <mxCell id="QFfBQqacpw4Q1S9WYrsz-57" value="" style="edgeStyle=orthogonalEdgeStyle;rounded=0;orthogonalLoop=1;jettySize=auto;html=1;exitX=0.5;exitY=1;exitDx=0;exitDy=0;entryX=0.5;entryY=0;entryDx=0;entryDy=0;" edge="1" parent="QFfBQqacpw4Q1S9WYrsz-33" source="QFfBQqacpw4Q1S9WYrsz-59" target="QFfBQqacpw4Q1S9WYrsz-38">
          <mxGeometry x="-1000" y="80" as="geometry">
            <mxPoint y="-12" as="offset" />
          </mxGeometry>
        </mxCell>
        <mxCell id="QFfBQqacpw4Q1S9WYrsz-58" value="是" style="edgeLabel;html=1;align=center;verticalAlign=middle;resizable=0;points=[];" vertex="1" connectable="0" parent="QFfBQqacpw4Q1S9WYrsz-57">
          <mxGeometry relative="1" as="geometry">
            <mxPoint y="-14" as="offset" />
          </mxGeometry>
        </mxCell>
        <mxCell id="QFfBQqacpw4Q1S9WYrsz-59" value="3D结构光&lt;br&gt;活体检测？" style="rhombus;whiteSpace=wrap;html=1;" vertex="1" parent="QFfBQqacpw4Q1S9WYrsz-33">
          <mxGeometry x="390" y="160" width="100" height="50" as="geometry" />
        </mxCell>
        <mxCell id="QFfBQqacpw4Q1S9WYrsz-60" style="edgeStyle=orthogonalEdgeStyle;rounded=0;orthogonalLoop=1;jettySize=auto;html=1;exitX=0.5;exitY=1;exitDx=0;exitDy=0;" edge="1" parent="QFfBQqacpw4Q1S9WYrsz-33" source="QFfBQqacpw4Q1S9WYrsz-45" target="QFfBQqacpw4Q1S9WYrsz-59">
          <mxGeometry y="80" as="geometry" />
        </mxCell>
        <mxCell id="QFfBQqacpw4Q1S9WYrsz-61" style="edgeStyle=orthogonalEdgeStyle;rounded=0;orthogonalLoop=1;jettySize=auto;html=1;entryX=1;entryY=0.5;entryDx=0;entryDy=0;exitX=0.5;exitY=0;exitDx=0;exitDy=0;opacity=50;dashed=1;" edge="1" parent="QFfBQqacpw4Q1S9WYrsz-33" source="QFfBQqacpw4Q1S9WYrsz-62" target="QFfBQqacpw4Q1S9WYrsz-45">
          <mxGeometry y="80" as="geometry" />
        </mxCell>
        <mxCell id="QFfBQqacpw4Q1S9WYrsz-62" value="人脸识别不通过" style="rounded=0;whiteSpace=wrap;html=1;fillColor=#f5f5f5;strokeColor=#666666;gradientColor=#b3b3b3;" vertex="1" parent="QFfBQqacpw4Q1S9WYrsz-33">
          <mxGeometry x="574" y="160" width="100" height="50" as="geometry" />
        </mxCell>
        <mxCell id="QFfBQqacpw4Q1S9WYrsz-63" value="否" style="edgeStyle=orthogonalEdgeStyle;rounded=0;orthogonalLoop=1;jettySize=auto;html=1;" edge="1" parent="QFfBQqacpw4Q1S9WYrsz-33" source="QFfBQqacpw4Q1S9WYrsz-59" target="QFfBQqacpw4Q1S9WYrsz-62">
          <mxGeometry x="-1000" y="80" as="geometry">
            <mxPoint x="-1" as="offset" />
          </mxGeometry>
        </mxCell>
        <mxCell id="QFfBQqacpw4Q1S9WYrsz-64" value="&lt;font style=&quot;font-size: 32px&quot;&gt;刷脸出站流程&lt;/font&gt;" style="text;html=1;strokeColor=none;fillColor=none;align=center;verticalAlign=middle;whiteSpace=wrap;rounded=0;" vertex="1" parent="QFfBQqacpw4Q1S9WYrsz-33">
          <mxGeometry x="337" width="206" height="20" as="geometry" />
        </mxCell>
        <mxCell id="QFfBQqacpw4Q1S9WYrsz-65" style="edgeStyle=orthogonalEdgeStyle;rounded=0;orthogonalLoop=1;jettySize=auto;html=1;exitX=0;exitY=0.5;exitDx=0;exitDy=0;startArrow=classic;startFill=1;endArrow=none;endFill=0;strokeColor=#000000;" edge="1" parent="QFfBQqacpw4Q1S9WYrsz-33" source="QFfBQqacpw4Q1S9WYrsz-67">
          <mxGeometry as="geometry">
            <mxPoint x="160" y="970" as="targetPoint" />
            <mxPoint x="245" y="970" as="sourcePoint" />
          </mxGeometry>
        </mxCell>
        <mxCell id="QFfBQqacpw4Q1S9WYrsz-66" style="edgeStyle=orthogonalEdgeStyle;rounded=0;orthogonalLoop=1;jettySize=auto;html=1;exitX=0.5;exitY=1;exitDx=0;exitDy=0;startArrow=none;startFill=0;endArrow=classic;endFill=1;strokeColor=#000000;" edge="1" parent="QFfBQqacpw4Q1S9WYrsz-33" source="QFfBQqacpw4Q1S9WYrsz-67">
          <mxGeometry as="geometry">
            <mxPoint x="315" y="1110" as="targetPoint" />
            <Array as="points">
              <mxPoint x="315" y="1110" />
            </Array>
          </mxGeometry>
        </mxCell>
        <mxCell id="QFfBQqacpw4Q1S9WYrsz-67" value="&lt;span style=&quot;text-align: center&quot;&gt;新增或更新&lt;/span&gt;&lt;span style=&quot;text-align: center&quot;&gt;站点常旅客库、线路常旅客库；&lt;/span&gt;&lt;br style=&quot;font-size: 11px&quot;&gt;&lt;span style=&quot;text-align: center&quot;&gt;将该人员底库的人脸特征值从进站旅客动态库删除；&lt;/span&gt;" style="rounded=0;whiteSpace=wrap;html=1;align=left;" vertex="1" parent="QFfBQqacpw4Q1S9WYrsz-33">
          <mxGeometry x="240" y="940" width="150" height="60" as="geometry" />
        </mxCell>
        <mxCell id="QFfBQqacpw4Q1S9WYrsz-68" value="" style="edgeStyle=orthogonalEdgeStyle;rounded=0;orthogonalLoop=1;jettySize=auto;html=1;exitX=1;exitY=0.5;exitDx=0;exitDy=0;startArrow=none;startFill=0;endArrow=classic;endFill=1;fillColor=#d5e8d4;strokeColor=#82b366;" edge="1" parent="QFfBQqacpw4Q1S9WYrsz-33">
          <mxGeometry y="-0.23000000000000043" as="geometry">
            <mxPoint x="440" y="874.77" as="targetPoint" />
            <Array as="points">
              <mxPoint x="440" y="874.77" />
            </Array>
            <mxPoint as="offset" />
            <mxPoint x="382" y="874.77" as="sourcePoint" />
          </mxGeometry>
        </mxCell>
        <mxCell id="QFfBQqacpw4Q1S9WYrsz-69" value="否" style="edgeLabel;html=1;align=center;verticalAlign=middle;resizable=0;points=[];" vertex="1" connectable="0" parent="QFfBQqacpw4Q1S9WYrsz-68">
          <mxGeometry x="0.3055" relative="1" as="geometry">
            <mxPoint x="-11.14" y="-0.02" as="offset" />
          </mxGeometry>
        </mxCell>
        <mxCell id="QFfBQqacpw4Q1S9WYrsz-70" value="异常用户集？" style="rhombus;whiteSpace=wrap;html=1;fillColor=#d5e8d4;strokeColor=#82b366;" vertex="1" parent="QFfBQqacpw4Q1S9WYrsz-33">
          <mxGeometry x="105" y="850" width="110" height="50" as="geometry" />
        </mxCell>
        <mxCell id="QFfBQqacpw4Q1S9WYrsz-71" style="edgeStyle=orthogonalEdgeStyle;rounded=0;orthogonalLoop=1;jettySize=auto;html=1;exitX=0.5;exitY=1;exitDx=0;exitDy=0;startArrow=none;startFill=0;endArrow=classic;endFill=1;strokeColor=#82b366;fillColor=#d5e8d4;" edge="1" parent="QFfBQqacpw4Q1S9WYrsz-33" source="QFfBQqacpw4Q1S9WYrsz-73">
          <mxGeometry as="geometry">
            <mxPoint x="160" y="930" as="targetPoint" />
            <mxPoint x="358" y="900" as="sourcePoint" />
            <Array as="points">
              <mxPoint x="327" y="930" />
            </Array>
          </mxGeometry>
        </mxCell>
        <mxCell id="QFfBQqacpw4Q1S9WYrsz-72" value="是" style="edgeLabel;html=1;align=center;verticalAlign=middle;resizable=0;points=[];" vertex="1" connectable="0" parent="QFfBQqacpw4Q1S9WYrsz-71">
          <mxGeometry x="-0.8166" y="-1" relative="1" as="geometry">
            <mxPoint x="1" y="-7.43" as="offset" />
          </mxGeometry>
        </mxCell>
        <mxCell id="QFfBQqacpw4Q1S9WYrsz-73" value="S&lt;span style=&quot;font-size: 10px&quot;&gt;&lt;sub&gt;max&lt;/sub&gt;&lt;/span&gt;&amp;gt;T1?" style="rhombus;whiteSpace=wrap;html=1;fillColor=#d5e8d4;strokeColor=#82b366;" vertex="1" parent="QFfBQqacpw4Q1S9WYrsz-33">
          <mxGeometry x="272" y="850" width="110" height="50" as="geometry" />
        </mxCell>
        <mxCell id="QFfBQqacpw4Q1S9WYrsz-74" value="" style="edgeStyle=orthogonalEdgeStyle;rounded=0;orthogonalLoop=1;jettySize=auto;html=1;exitX=1;exitY=0.5;exitDx=0;exitDy=0;startArrow=none;startFill=0;endArrow=classic;endFill=1;fillColor=#d5e8d4;strokeColor=#82b366;" edge="1" parent="QFfBQqacpw4Q1S9WYrsz-33">
          <mxGeometry y="-0.2400000000000002" as="geometry">
            <mxPoint x="272" y="874.76" as="targetPoint" />
            <mxPoint x="215" y="874.76" as="sourcePoint" />
            <Array as="points" />
            <mxPoint as="offset" />
          </mxGeometry>
        </mxCell>
        <mxCell id="QFfBQqacpw4Q1S9WYrsz-75" value="是" style="edgeLabel;html=1;align=center;verticalAlign=middle;resizable=0;points=[];" vertex="1" connectable="0" parent="QFfBQqacpw4Q1S9WYrsz-74">
          <mxGeometry x="-0.3517" y="-1" relative="1" as="geometry">
            <mxPoint x="7" y="-1" as="offset" />
          </mxGeometry>
        </mxCell>
        <mxCell id="QFfBQqacpw4Q1S9WYrsz-76" value="返回比对结果;" style="rounded=0;whiteSpace=wrap;html=1;fillColor=#f8cecc;strokeColor=#b85450;" vertex="1" parent="QFfBQqacpw4Q1S9WYrsz-33">
          <mxGeometry x="110" y="1043" width="100" height="50" as="geometry" />
        </mxCell>
        <mxCell id="QFfBQqacpw4Q1S9WYrsz-77" style="edgeStyle=orthogonalEdgeStyle;rounded=0;orthogonalLoop=1;jettySize=auto;html=1;exitX=0.5;exitY=1;exitDx=0;exitDy=0;startArrow=none;startFill=0;endArrow=classic;endFill=1;strokeColor=#000000;" edge="1" parent="QFfBQqacpw4Q1S9WYrsz-33" source="QFfBQqacpw4Q1S9WYrsz-70" target="QFfBQqacpw4Q1S9WYrsz-76">
          <mxGeometry as="geometry" />
        </mxCell>
        <mxCell id="QFfBQqacpw4Q1S9WYrsz-78" value="否" style="edgeLabel;html=1;align=center;verticalAlign=middle;resizable=0;points=[];" vertex="1" connectable="0" parent="QFfBQqacpw4Q1S9WYrsz-77">
          <mxGeometry x="-0.8996" relative="1" as="geometry">
            <mxPoint y="4.57" as="offset" />
          </mxGeometry>
        </mxCell>
        <mxCell id="QFfBQqacpw4Q1S9WYrsz-79" style="edgeStyle=orthogonalEdgeStyle;rounded=0;orthogonalLoop=1;jettySize=auto;html=1;exitX=0;exitY=0.5;exitDx=0;exitDy=0;entryX=0.5;entryY=0;entryDx=0;entryDy=0;" edge="1" parent="QFfBQqacpw4Q1S9WYrsz-33" source="QFfBQqacpw4Q1S9WYrsz-81" target="QFfBQqacpw4Q1S9WYrsz-70">
          <mxGeometry relative="1" as="geometry" />
        </mxCell>
        <mxCell id="QFfBQqacpw4Q1S9WYrsz-80" value="是" style="edgeLabel;html=1;align=center;verticalAlign=middle;resizable=0;points=[];" vertex="1" connectable="0" parent="QFfBQqacpw4Q1S9WYrsz-79">
          <mxGeometry x="-0.5416" y="1" relative="1" as="geometry">
            <mxPoint as="offset" />
          </mxGeometry>
        </mxCell>
        <mxCell id="QFfBQqacpw4Q1S9WYrsz-81" value="站点常旅客库&lt;br&gt;Smax&amp;gt;T0?" style="rhombus;whiteSpace=wrap;html=1;" vertex="1" parent="QFfBQqacpw4Q1S9WYrsz-33">
          <mxGeometry x="340" y="560" width="200" height="50" as="geometry" />
        </mxCell>
        <mxCell id="QFfBQqacpw4Q1S9WYrsz-82" value="" style="edgeStyle=orthogonalEdgeStyle;rounded=0;orthogonalLoop=1;jettySize=auto;html=1;" edge="1" parent="QFfBQqacpw4Q1S9WYrsz-33" source="QFfBQqacpw4Q1S9WYrsz-41" target="QFfBQqacpw4Q1S9WYrsz-81">
          <mxGeometry relative="1" as="geometry" />
        </mxCell>
        <mxCell id="QFfBQqacpw4Q1S9WYrsz-83" value="否" style="edgeLabel;html=1;align=center;verticalAlign=middle;resizable=0;points=[];" vertex="1" connectable="0" parent="QFfBQqacpw4Q1S9WYrsz-82">
          <mxGeometry x="-0.5374" y="1" relative="1" as="geometry">
            <mxPoint x="-1" y="24" as="offset" />
          </mxGeometry>
        </mxCell>
        <mxCell id="QFfBQqacpw4Q1S9WYrsz-84" value="10W级" style="text;html=1;strokeColor=none;fillColor=none;align=center;verticalAlign=middle;whiteSpace=wrap;rounded=0;fontColor=#FF0000;fontStyle=2" vertex="1" parent="QFfBQqacpw4Q1S9WYrsz-33">
          <mxGeometry x="310" y="560" width="48" height="20" as="geometry" />
        </mxCell>
        <mxCell id="QFfBQqacpw4Q1S9WYrsz-85" value="100W级" style="text;html=1;strokeColor=none;fillColor=none;align=center;verticalAlign=middle;whiteSpace=wrap;rounded=0;fontColor=#FF0000;fontStyle=2" vertex="1" parent="QFfBQqacpw4Q1S9WYrsz-33">
          <mxGeometry x="310" y="660" width="48" height="20" as="geometry" />
        </mxCell>
        <mxCell id="QFfBQqacpw4Q1S9WYrsz-86" value="500W级" style="text;html=1;strokeColor=none;fillColor=none;align=center;verticalAlign=middle;whiteSpace=wrap;rounded=0;fontColor=#FF0000;fontStyle=2" vertex="1" parent="QFfBQqacpw4Q1S9WYrsz-33">
          <mxGeometry x="310" y="750" width="48" height="20" as="geometry" />
        </mxCell>
        <mxCell id="QFfBQqacpw4Q1S9WYrsz-87" value="" style="edgeStyle=orthogonalEdgeStyle;rounded=0;orthogonalLoop=1;jettySize=auto;html=1;" edge="1" parent="1" source="QFfBQqacpw4Q1S9WYrsz-81" target="QFfBQqacpw4Q1S9WYrsz-93">
          <mxGeometry relative="1" as="geometry" />
        </mxCell>
        <mxCell id="QFfBQqacpw4Q1S9WYrsz-88" value="否" style="edgeLabel;html=1;align=center;verticalAlign=middle;resizable=0;points=[];" vertex="1" connectable="0" parent="QFfBQqacpw4Q1S9WYrsz-87">
          <mxGeometry x="-0.2721" relative="1" as="geometry">
            <mxPoint as="offset" />
          </mxGeometry>
        </mxCell>
        <mxCell id="QFfBQqacpw4Q1S9WYrsz-89" value="" style="edgeStyle=orthogonalEdgeStyle;rounded=0;orthogonalLoop=1;jettySize=auto;html=1;" edge="1" parent="1" source="QFfBQqacpw4Q1S9WYrsz-93" target="QFfBQqacpw4Q1S9WYrsz-98">
          <mxGeometry relative="1" as="geometry" />
        </mxCell>
        <mxCell id="QFfBQqacpw4Q1S9WYrsz-90" value="否" style="edgeLabel;html=1;align=center;verticalAlign=middle;resizable=0;points=[];" vertex="1" connectable="0" parent="QFfBQqacpw4Q1S9WYrsz-89">
          <mxGeometry x="-0.2847" y="1" relative="1" as="geometry">
            <mxPoint as="offset" />
          </mxGeometry>
        </mxCell>
        <mxCell id="QFfBQqacpw4Q1S9WYrsz-91" style="edgeStyle=orthogonalEdgeStyle;rounded=0;orthogonalLoop=1;jettySize=auto;html=1;exitX=0;exitY=0.5;exitDx=0;exitDy=0;" edge="1" parent="1" source="QFfBQqacpw4Q1S9WYrsz-93">
          <mxGeometry relative="1" as="geometry">
            <mxPoint x="3540" y="870" as="targetPoint" />
          </mxGeometry>
        </mxCell>
        <mxCell id="QFfBQqacpw4Q1S9WYrsz-92" value="是" style="edgeLabel;html=1;align=center;verticalAlign=middle;resizable=0;points=[];" vertex="1" connectable="0" parent="QFfBQqacpw4Q1S9WYrsz-91">
          <mxGeometry x="-0.4106" y="3" relative="1" as="geometry">
            <mxPoint as="offset" />
          </mxGeometry>
        </mxCell>
        <mxCell id="QFfBQqacpw4Q1S9WYrsz-93" value="线路常旅客库&lt;br&gt;Smax&amp;gt;T0?" style="rhombus;whiteSpace=wrap;html=1;" vertex="1" parent="1">
          <mxGeometry x="3720" y="685.74" width="200" height="50" as="geometry" />
        </mxCell>
        <mxCell id="QFfBQqacpw4Q1S9WYrsz-94" style="edgeStyle=orthogonalEdgeStyle;rounded=0;orthogonalLoop=1;jettySize=auto;html=1;exitX=0.5;exitY=1;exitDx=0;exitDy=0;entryX=0.5;entryY=0;entryDx=0;entryDy=0;" edge="1" parent="1" source="QFfBQqacpw4Q1S9WYrsz-98" target="QFfBQqacpw4Q1S9WYrsz-47">
          <mxGeometry relative="1" as="geometry" />
        </mxCell>
        <mxCell id="QFfBQqacpw4Q1S9WYrsz-95" value="Text" style="edgeLabel;html=1;align=center;verticalAlign=middle;resizable=0;points=[];" vertex="1" connectable="0" parent="QFfBQqacpw4Q1S9WYrsz-94">
          <mxGeometry x="-0.7513" y="1" relative="1" as="geometry">
            <mxPoint as="offset" />
          </mxGeometry>
        </mxCell>
        <mxCell id="QFfBQqacpw4Q1S9WYrsz-96" style="edgeStyle=orthogonalEdgeStyle;rounded=0;orthogonalLoop=1;jettySize=auto;html=1;exitX=0;exitY=0.5;exitDx=0;exitDy=0;entryX=0.5;entryY=0;entryDx=0;entryDy=0;" edge="1" parent="1" source="QFfBQqacpw4Q1S9WYrsz-98" target="QFfBQqacpw4Q1S9WYrsz-70">
          <mxGeometry relative="1" as="geometry" />
        </mxCell>
        <mxCell id="QFfBQqacpw4Q1S9WYrsz-97" value="是" style="edgeLabel;html=1;align=center;verticalAlign=middle;resizable=0;points=[];" vertex="1" connectable="0" parent="QFfBQqacpw4Q1S9WYrsz-96">
          <mxGeometry x="-0.1913" y="1" relative="1" as="geometry">
            <mxPoint as="offset" />
          </mxGeometry>
        </mxCell>
        <mxCell id="QFfBQqacpw4Q1S9WYrsz-98" value="地铁全量库&lt;br&gt;Smax&amp;gt;T0?" style="rhombus;whiteSpace=wrap;html=1;" vertex="1" parent="1">
          <mxGeometry x="3720" y="777.74" width="200" height="50" as="geometry" />
        </mxCell>
        <mxCell id="QFfBQqacpw4Q1S9WYrsz-118" value="100W级" style="text;html=1;strokeColor=none;fillColor=none;align=center;verticalAlign=middle;whiteSpace=wrap;rounded=0;fontColor=#FF0000;fontStyle=2" vertex="1" parent="1">
          <mxGeometry x="2329" y="494" width="48" height="20" as="geometry" />
        </mxCell>
        <mxCell id="QFfBQqacpw4Q1S9WYrsz-141" value="否" style="edgeStyle=orthogonalEdgeStyle;rounded=0;orthogonalLoop=1;jettySize=auto;html=1;shadow=1;" edge="1" parent="1" source="QFfBQqacpw4Q1S9WYrsz-113">
          <mxGeometry relative="1" as="geometry">
            <mxPoint x="2420" y="663" as="targetPoint" />
          </mxGeometry>
        </mxCell>
        <mxCell id="QFfBQqacpw4Q1S9WYrsz-150" value="是" style="edgeStyle=orthogonalEdgeStyle;rounded=0;orthogonalLoop=1;jettySize=auto;html=1;shadow=1;" edge="1" parent="1" source="QFfBQqacpw4Q1S9WYrsz-113">
          <mxGeometry relative="1" as="geometry">
            <mxPoint x="2740" y="730" as="targetPoint" />
            <Array as="points">
              <mxPoint x="2574" y="730" />
              <mxPoint x="2740" y="730" />
            </Array>
          </mxGeometry>
        </mxCell>
        <mxCell id="QFfBQqacpw4Q1S9WYrsz-151" style="edgeStyle=orthogonalEdgeStyle;rounded=0;orthogonalLoop=1;jettySize=auto;html=1;shadow=1;" edge="1" parent="1" source="BiACdV3-vk9zJD2BeTZf-64">
          <mxGeometry relative="1" as="geometry">
            <mxPoint x="2294" y="920" as="targetPoint" />
          </mxGeometry>
        </mxCell>
        <mxCell id="QFfBQqacpw4Q1S9WYrsz-152" style="edgeStyle=orthogonalEdgeStyle;rounded=0;orthogonalLoop=1;jettySize=auto;html=1;shadow=1;" edge="1" parent="1" source="QFfBQqacpw4Q1S9WYrsz-100">
          <mxGeometry relative="1" as="geometry">
            <mxPoint x="2560" y="920" as="targetPoint" />
          </mxGeometry>
        </mxCell>
        <mxCell id="QFfBQqacpw4Q1S9WYrsz-156" style="edgeStyle=orthogonalEdgeStyle;rounded=0;orthogonalLoop=1;jettySize=auto;html=1;exitX=0.5;exitY=1;exitDx=0;exitDy=0;shadow=1;" edge="1" parent="1" source="QFfBQqacpw4Q1S9WYrsz-105">
          <mxGeometry relative="1" as="geometry">
            <mxPoint x="2739" y="850" as="targetPoint" />
          </mxGeometry>
        </mxCell>
        <mxCell id="QFfBQqacpw4Q1S9WYrsz-157" style="edgeStyle=orthogonalEdgeStyle;rounded=0;orthogonalLoop=1;jettySize=auto;html=1;exitX=0.5;exitY=1;exitDx=0;exitDy=0;shadow=1;" edge="1" parent="1" source="QFfBQqacpw4Q1S9WYrsz-105">
          <mxGeometry relative="1" as="geometry">
            <mxPoint x="2640" y="790" as="targetPoint" />
            <Array as="points">
              <mxPoint x="2738" y="790" />
              <mxPoint x="2640" y="790" />
            </Array>
          </mxGeometry>
        </mxCell>
        <mxCell id="QFfBQqacpw4Q1S9WYrsz-158" value="否" style="edgeLabel;html=1;align=center;verticalAlign=middle;resizable=0;points=[];" vertex="1" connectable="0" parent="QFfBQqacpw4Q1S9WYrsz-157">
          <mxGeometry x="-0.7688" y="1" relative="1" as="geometry">
            <mxPoint as="offset" />
          </mxGeometry>
        </mxCell>
        <mxCell id="QFfBQqacpw4Q1S9WYrsz-161" value="否" style="edgeStyle=orthogonalEdgeStyle;rounded=0;orthogonalLoop=1;jettySize=auto;html=1;exitX=1;exitY=0.5;exitDx=0;exitDy=0;shadow=1;" edge="1" parent="1" source="BiACdV3-vk9zJD2BeTZf-72">
          <mxGeometry relative="1" as="geometry">
            <mxPoint x="2420" y="665.1176470588234" as="targetPoint" />
          </mxGeometry>
        </mxCell>
      </root>
    </mxGraphModel>
  </diagram>
</mxfile>
